<?xml version="1.0" encoding="utf-8"?>
<!-- Generator: Adobe Illustrator 15.1.0, SVG Export Plug-In . SVG Version: 6.00 Build 0)  -->
<!DOCTYPE svg PUBLIC "-//W3C//DTD SVG 1.1//EN" "http://www.w3.org/Graphics/SVG/1.1/DTD/svg11.dtd">
<svg version="1.1" id="Laag_1" xmlns="http://www.w3.org/2000/svg" xmlns:xlink="http://www.w3.org/1999/xlink" x="0px" y="0px"
	 width="152.06px" height="215.64px" viewBox="0 0 152.06 215.64" enable-background="new 0 0 152.06 215.64" xml:space="preserve">
<g>
	<defs>
		<polygon id="SVGID_1_" points="5.758,-0.001 146.158,-0.001 148.461,0.575 150.334,2.376 151.629,4.968 152.061,8.28 
			152.061,207.434 151.629,210.602 150.334,213.266 148.461,214.992 146.158,215.641 5.758,215.641 3.454,214.992 1.655,213.266 
			0.358,210.602 -0.001,207.434 -0.001,8.28 0.358,4.968 1.655,2.376 3.454,0.575 		"/>
	</defs>
	<clipPath id="SVGID_2_">
		<use xlink:href="#SVGID_1_"  overflow="visible"/>
	</clipPath>
	<linearGradient id="SVGID_3_" gradientUnits="userSpaceOnUse" x1="-27.3149" y1="151.3887" x2="211.6855" y2="151.3887">
		<stop  offset="0" style="stop-color:#FDC61D"/>
		<stop  offset="1" style="stop-color:#C0181D"/>
	</linearGradient>
	<rect x="-27.315" y="-140.612" clip-path="url(#SVGID_2_)" fill="url(#SVGID_3_)" width="239" height="584.001"/>
	<path clip-path="url(#SVGID_2_)" fill="#231F20" d="M98.124,184.855c0-31.134-25.238-56.373-56.372-56.373
		c-31.134,0-56.374,25.239-56.374,56.373s25.239,56.373,56.374,56.373C72.886,241.229,98.124,215.989,98.124,184.855z M5.3,184.855
		c0-20.133,16.321-36.451,36.453-36.451c20.13,0,36.451,16.318,36.451,36.451s-16.321,36.452-36.451,36.452
		C21.621,221.308,5.3,204.988,5.3,184.855z"/>
	<path clip-path="url(#SVGID_2_)" fill="#7F8084" d="M196.217,61.558c0-62.374-50.564-112.938-112.939-112.938
		C20.905-51.38-29.66-0.816-29.661,61.558c0,62.374,50.563,112.938,112.938,112.938C145.652,174.496,196.217,123.932,196.217,61.558
		z M10.25,61.558c0-40.332,32.695-73.027,73.027-73.027c40.332,0,73.029,32.695,73.029,73.027c0,40.333-32.697,73.028-73.029,73.028
		C42.946,134.586,10.25,101.891,10.25,61.558z"/>
	<g clip-path="url(#SVGID_2_)">
		<polygon opacity="0.31" fill="#FFFFFF" points="94.342,245.422 110.246,242.012 270.436,73.866 257.939,71.594 		"/>
		<linearGradient id="SVGID_4_" gradientUnits="userSpaceOnUse" x1="46.6245" y1="147.1465" x2="242.6016" y2="147.1465">
			<stop  offset="0" style="stop-color:#FDC61D"/>
			<stop  offset="1" style="stop-color:#C0181D"/>
		</linearGradient>
		<polygon fill="url(#SVGID_4_)" points="207.951,60.232 242.602,68.186 79.572,234.061 46.625,219.574 		"/>
		<g>
			<g>
				<g>
					<linearGradient id="SVGID_5_" gradientUnits="userSpaceOnUse" x1="29.9795" y1="260.3701" x2="176.9273" y2="109.632">
						<stop  offset="0" style="stop-color:#FDC61D"/>
						<stop  offset="1" style="stop-color:#C0181D"/>
					</linearGradient>
					<path fill="url(#SVGID_5_)" d="M70.159,213.033c-0.306,1.873-0.808,3.781-1.699,5.699c-0.222,0.479-0.462,0.957-0.737,1.438
						c-0.227,0.395-0.293,0.611-0.23,0.684c0.018,0.021,0.053,0.031,0.102,0.021c-0.008,0.049-0.004,0.084,0.019,0.102
						c0.222,0.209,1.406-0.568,1.655-0.684c1.988-0.904,4.096-1.445,6.244-1.721c5.684-0.742,10.975,0.324,15.075-2.033
						c2.725-1.566,4.816-4.629,5.068-7.752c0.146-1.775-0.338-3.439-1.5-4.643c-1.402-1.451-3.51-1.93-5.703-1.514
						c-1.148,0.217-2.32,0.68-3.43,1.371c2.131-3.16,2.299-6.922,0.16-9.133c-1.164-1.203-2.811-1.734-4.59-1.65
						c-3.133,0.154-6.261,2.139-7.917,4.814C70.19,202.049,71.078,207.375,70.159,213.033z"/>
				</g>
				<g>
					<linearGradient id="SVGID_6_" gradientUnits="userSpaceOnUse" x1="30.4443" y1="260.8086" x2="177.3743" y2="110.0887">
						<stop  offset="0" style="stop-color:#FDC61D"/>
						<stop  offset="1" style="stop-color:#C0181D"/>
					</linearGradient>
					<path fill="url(#SVGID_6_)" d="M92.096,191.443c-0.307,1.877-0.809,3.785-1.699,5.697c-0.223,0.48-0.463,0.959-0.732,1.434
						c-0.23,0.4-0.299,0.617-0.236,0.689c0.018,0.021,0.055,0.025,0.104,0.018c-0.01,0.053-0.006,0.084,0.018,0.105
						c0.221,0.205,1.406-0.572,1.654-0.684c1.988-0.904,4.096-1.447,6.244-1.727c5.686-0.732,10.979,0.324,15.076-2.027
						c2.725-1.566,4.814-4.629,5.072-7.754c0.143-1.773-0.338-3.434-1.504-4.637c-1.402-1.451-3.512-1.93-5.703-1.518
						c-1.15,0.217-2.326,0.684-3.432,1.375c2.131-3.16,2.299-6.922,0.16-9.133c-1.166-1.203-2.809-1.74-4.588-1.65
						c-3.129,0.15-6.262,2.139-7.914,4.811C92.127,180.465,93.014,185.785,92.096,191.443z"/>
				</g>
				<g>
					<linearGradient id="SVGID_7_" gradientUnits="userSpaceOnUse" x1="30.8979" y1="261.2559" x2="177.832" y2="110.5318">
						<stop  offset="0" style="stop-color:#FDC61D"/>
						<stop  offset="1" style="stop-color:#C0181D"/>
					</linearGradient>
					<path fill="url(#SVGID_7_)" d="M114.027,169.857c-0.303,1.877-0.809,3.781-1.695,5.697c-0.223,0.477-0.461,0.955-0.736,1.434
						c-0.227,0.396-0.297,0.613-0.23,0.684c0.018,0.023,0.053,0.031,0.098,0.023c-0.01,0.049-0.006,0.084,0.021,0.102
						c0.217,0.209,1.406-0.568,1.65-0.684c1.988-0.9,4.098-1.447,6.25-1.723c5.684-0.732,10.975,0.324,15.07-2.027
						c2.729-1.566,4.814-4.629,5.072-7.754c0.143-1.773-0.338-3.438-1.5-4.637c-1.406-1.455-3.51-1.936-5.703-1.518
						c-1.148,0.217-2.324,0.684-3.434,1.375c2.129-3.158,2.299-6.922,0.158-9.133c-1.162-1.207-2.809-1.74-4.584-1.65
						c-3.133,0.15-6.262,2.139-7.916,4.811C114.063,158.879,114.951,164.199,114.027,169.857z"/>
				</g>
				<g>
					<linearGradient id="SVGID_8_" gradientUnits="userSpaceOnUse" x1="31.3506" y1="261.7061" x2="178.2907" y2="110.9757">
						<stop  offset="0" style="stop-color:#FDC61D"/>
						<stop  offset="1" style="stop-color:#C0181D"/>
					</linearGradient>
					<path fill="url(#SVGID_8_)" d="M135.963,148.271c-0.301,1.873-0.807,3.781-1.695,5.693c-0.221,0.48-0.465,0.959-0.736,1.434
						c-0.227,0.4-0.297,0.617-0.234,0.688c0.021,0.023,0.053,0.031,0.102,0.023c-0.004,0.049-0.004,0.08,0.021,0.102
						c0.219,0.209,1.402-0.572,1.652-0.684c1.988-0.904,4.096-1.447,6.248-1.727c5.686-0.732,10.975,0.328,15.07-2.023
						c2.725-1.57,4.82-4.633,5.072-7.758c0.143-1.773-0.336-3.434-1.5-4.637c-1.406-1.451-3.51-1.93-5.701-1.514
						c-1.15,0.213-2.326,0.68-3.436,1.371c2.131-3.16,2.299-6.923,0.16-9.134c-1.164-1.202-2.811-1.734-4.584-1.65
						c-3.135,0.155-6.262,2.139-7.918,4.814C136,137.287,136.883,142.609,135.963,148.271z"/>
				</g>
				<g>
					<linearGradient id="SVGID_9_" gradientUnits="userSpaceOnUse" x1="31.8193" y1="262.1367" x2="178.744" y2="111.4223">
						<stop  offset="0" style="stop-color:#FDC61D"/>
						<stop  offset="1" style="stop-color:#C0181D"/>
					</linearGradient>
					<path fill="url(#SVGID_9_)" d="M157.9,126.681c-0.307,1.877-0.809,3.785-1.699,5.698c-0.223,0.476-0.463,0.954-0.732,1.434
						c-0.23,0.399-0.299,0.612-0.236,0.684c0.018,0.026,0.055,0.03,0.104,0.022c-0.01,0.049-0.006,0.084,0.018,0.102
						c0.221,0.213,1.406-0.568,1.654-0.684c1.988-0.905,4.096-1.446,6.244-1.722c5.686-0.737,10.979,0.324,15.076-2.028
						c2.725-1.566,4.814-4.624,5.072-7.753c0.143-1.774-0.338-3.435-1.504-4.638c-1.402-1.451-3.512-1.93-5.703-1.518
						c-1.15,0.218-2.326,0.684-3.432,1.376c2.131-3.159,2.299-6.923,0.16-9.134c-1.166-1.202-2.809-1.739-4.588-1.65
						c-3.129,0.15-6.262,2.139-7.914,4.811C157.932,115.702,158.818,121.026,157.9,126.681z"/>
				</g>
				<g>
					<linearGradient id="SVGID_10_" gradientUnits="userSpaceOnUse" x1="32.2681" y1="262.5918" x2="179.2023" y2="111.8675">
						<stop  offset="0" style="stop-color:#FDC61D"/>
						<stop  offset="1" style="stop-color:#C0181D"/>
					</linearGradient>
					<path fill="url(#SVGID_10_)" d="M179.836,105.095c-0.307,1.877-0.807,3.781-1.699,5.699c-0.223,0.475-0.461,0.953-0.736,1.433
						c-0.227,0.396-0.293,0.612-0.23,0.684c0.018,0.022,0.053,0.031,0.102,0.022c-0.01,0.049-0.004,0.084,0.018,0.102
						c0.223,0.209,1.406-0.568,1.656-0.684c1.986-0.9,4.096-1.446,6.244-1.722c5.684-0.736,10.975,0.324,15.074-2.028
						c2.725-1.566,4.814-4.629,5.068-7.752c0.146-1.775-0.338-3.439-1.5-4.639c-1.402-1.451-3.51-1.93-5.703-1.518
						c-1.148,0.218-2.32,0.68-3.43,1.376c2.129-3.164,2.299-6.927,0.16-9.138c-1.164-1.198-2.811-1.734-4.59-1.65
						c-3.133,0.155-6.262,2.139-7.916,4.814C179.867,94.111,180.756,99.437,179.836,105.095z"/>
				</g>
				<g>
					<linearGradient id="SVGID_11_" gradientUnits="userSpaceOnUse" x1="32.7266" y1="263.0381" x2="179.6591" y2="112.3155">
						<stop  offset="0" style="stop-color:#FDC61D"/>
						<stop  offset="1" style="stop-color:#C0181D"/>
					</linearGradient>
					<path fill="url(#SVGID_11_)" d="M201.773,83.509c-0.307,1.873-0.809,3.781-1.701,5.694c-0.221,0.479-0.461,0.958-0.73,1.434
						c-0.232,0.399-0.299,0.616-0.236,0.688c0.018,0.022,0.053,0.026,0.102,0.019c-0.008,0.053-0.004,0.088,0.018,0.105
						c0.223,0.209,1.408-0.572,1.656-0.684c1.988-0.904,4.096-1.446,6.244-1.726c5.686-0.732,10.979,0.323,15.076-2.028
						c2.725-1.566,4.814-4.624,5.072-7.753c0.141-1.775-0.338-3.435-1.506-4.638c-1.402-1.451-3.51-1.93-5.701-1.513
						c-1.15,0.213-2.326,0.679-3.432,1.371c2.131-3.16,2.299-6.923,0.16-9.133c-1.168-1.203-2.809-1.74-4.588-1.651
						c-3.129,0.151-6.262,2.139-7.914,4.815C201.805,72.525,202.691,77.852,201.773,83.509z"/>
				</g>
			</g>
		</g>
	</g>
</g>
</svg>
