<?xml version="1.0" encoding="utf-8"?>
<!-- Generator: Adobe Illustrator 15.1.0, SVG Export Plug-In . SVG Version: 6.00 Build 0)  -->
<!DOCTYPE svg PUBLIC "-//W3C//DTD SVG 1.1//EN" "http://www.w3.org/Graphics/SVG/1.1/DTD/svg11.dtd">
<svg version="1.1" id="Laag_1" xmlns="http://www.w3.org/2000/svg" xmlns:xlink="http://www.w3.org/1999/xlink" x="0px" y="0px"
	 width="152.06px" height="215.64px" viewBox="0 0 152.06 215.64" enable-background="new 0 0 152.06 215.64" xml:space="preserve">
<g>
	<defs>
		<polygon id="SVGID_1_" points="5.758,0 146.158,0 148.461,0.576 150.334,2.376 151.629,4.968 152.061,8.281 152.061,207.434 
			151.629,210.602 150.334,213.266 148.461,214.992 146.158,215.641 5.758,215.641 3.454,214.992 1.655,213.266 0.358,210.602 
			-0.001,207.434 -0.001,8.281 0.358,4.968 1.655,2.376 3.454,0.576 		"/>
	</defs>
	<clipPath id="SVGID_2_">
		<use xlink:href="#SVGID_1_"  overflow="visible"/>
	</clipPath>
	<linearGradient id="SVGID_3_" gradientUnits="userSpaceOnUse" x1="-27.3149" y1="151.3887" x2="211.6855" y2="151.3887">
		<stop  offset="0" style="stop-color:#FDC61D"/>
		<stop  offset="1" style="stop-color:#C0181D"/>
	</linearGradient>
	<rect x="-27.315" y="-140.612" clip-path="url(#SVGID_2_)" fill="url(#SVGID_3_)" width="239" height="584"/>
	<g clip-path="url(#SVGID_2_)">
		<g>
			<g>
				<g>
					
						<linearGradient id="SVGID_4_" gradientUnits="userSpaceOnUse" x1="891.0518" y1="642.5908" x2="1031.0192" y2="479.2921" gradientTransform="matrix(-1 0 0 -1 977.7324 649.6836)">
						<stop  offset="0" style="stop-color:#FDC61D"/>
						<stop  offset="1" style="stop-color:#C0181D"/>
					</linearGradient>
					<path fill-rule="evenodd" clip-rule="evenodd" fill="url(#SVGID_4_)" d="M11.458,92.674c0,0-13.236-2.139-18.545,5.41
						c-1.703,2.418-1.125,5.762,1.293,7.455c1.619,1.15,3.658,1.25,5.33,0.477c1.199-0.746,2.523-2.039,2.156-3.988
						c0,0,1.756,2.676-2.787,7.018c-0.652,0.646-1.439,1.387-2.408,2.203L-1,113.021c0.451-1.189,0.861-2.178,1.271-3.02
						c2.555-5.742,5.656-4.984,5.656-4.984c-1.945,0.299-2.723,1.977-3.027,3.366c-0.168,1.849,0.609,3.728,2.238,4.869
						c2.408,1.703,5.752,1.125,7.465-1.287C17.924,104.424,11.458,92.674,11.458,92.674z"/>
				</g>
				<g>
					
						<linearGradient id="SVGID_5_" gradientUnits="userSpaceOnUse" x1="892.7871" y1="644.0664" x2="1032.7438" y2="480.7801" gradientTransform="matrix(-1 0 0 -1 977.7324 649.6836)">
						<stop  offset="0" style="stop-color:#FDC61D"/>
						<stop  offset="1" style="stop-color:#C0181D"/>
					</linearGradient>
					<path fill-rule="evenodd" clip-rule="evenodd" fill="url(#SVGID_5_)" d="M25.336,72.982c0,0-13.236-2.129-18.547,5.42
						c-1.703,2.412-1.125,5.75,1.295,7.449c1.619,1.141,3.646,1.262,5.33,0.479c1.197-0.742,2.523-2.045,2.154-3.99
						c0,0,1.756,2.676-2.785,7.008c-0.662,0.668-1.451,1.402-2.418,2.213l2.502,1.771c0.451-1.184,0.873-2.188,1.283-3.023
						c2.555-5.74,5.656-4.979,5.656-4.979c-1.957,0.301-2.725,1.982-3.029,3.375c-0.168,1.83,0.621,3.707,2.24,4.863
						c2.408,1.697,5.75,1.119,7.453-1.293C31.792,84.727,25.336,72.982,25.336,72.982z"/>
				</g>
				<g>
					
						<linearGradient id="SVGID_6_" gradientUnits="userSpaceOnUse" x1="894.5234" y1="645.5488" x2="1034.4723" y2="482.2717" gradientTransform="matrix(-1 0 0 -1 977.7324 649.6836)">
						<stop  offset="0" style="stop-color:#FDC61D"/>
						<stop  offset="1" style="stop-color:#C0181D"/>
					</linearGradient>
					<path fill-rule="evenodd" clip-rule="evenodd" fill="url(#SVGID_6_)" d="M39.204,53.292c0,0-13.227-2.113-18.535,5.414
						c-1.713,2.424-1.125,5.766,1.283,7.47c1.619,1.135,3.658,1.25,5.34,0.477c1.199-0.762,2.523-2.054,2.156-4
						c0,0,1.756,2.676-2.787,7.013c-0.662,0.668-1.451,1.393-2.418,2.201l2.514,1.771c0.441-1.176,0.861-2.176,1.262-3.006
						c2.555-5.746,5.666-4.994,5.666-4.994c-1.955,0.314-2.723,1.986-3.027,3.375c-0.18,1.846,0.609,3.723,2.238,4.852
						c2.408,1.709,5.752,1.141,7.445-1.287C45.658,65.045,39.204,53.292,39.204,53.292z"/>
				</g>
				<g>
					
						<linearGradient id="SVGID_7_" gradientUnits="userSpaceOnUse" x1="896.252" y1="647.0303" x2="1036.1969" y2="483.7578" gradientTransform="matrix(-1 0 0 -1 977.7324 649.6836)">
						<stop  offset="0" style="stop-color:#FDC61D"/>
						<stop  offset="1" style="stop-color:#C0181D"/>
					</linearGradient>
					<path fill-rule="evenodd" clip-rule="evenodd" fill="url(#SVGID_7_)" d="M53.07,33.61c0,0-13.224-2.135-18.535,5.414
						c-1.703,2.412-1.125,5.75,1.293,7.453c1.609,1.152,3.648,1.262,5.342,0.479c1.188-0.746,2.523-2.039,2.145-3.988
						c0,0,1.755,2.67-2.785,7.012c-0.664,0.662-1.451,1.393-2.408,2.207l2.512,1.768c0.432-1.184,0.863-2.166,1.262-3.018
						c2.554-5.73,5.667-4.984,5.667-4.984c-1.955,0.305-2.734,1.982-3.039,3.381c-0.178,1.84,0.609,3.723,2.24,4.857
						c2.418,1.703,5.762,1.125,7.453-1.293C59.537,45.364,53.07,33.61,53.07,33.61z"/>
				</g>
				<g>
					
						<linearGradient id="SVGID_8_" gradientUnits="userSpaceOnUse" x1="899.7041" y1="649.9971" x2="1039.6683" y2="486.702" gradientTransform="matrix(-1 0 0 -1 977.7324 649.6836)">
						<stop  offset="0" style="stop-color:#FDC61D"/>
						<stop  offset="1" style="stop-color:#C0181D"/>
					</linearGradient>
					<path fill-rule="evenodd" clip-rule="evenodd" fill="url(#SVGID_8_)" d="M80.829-5.76c0,0-13.228-2.123-18.548,5.42
						c-1.713,2.408-1.115,5.74,1.293,7.453c1.609,1.137,3.658,1.252,5.33,0.469c1.209-0.752,2.523-2.039,2.166-3.99
						c0,0,1.746,2.666-2.797,7.014c-0.65,0.666-1.451,1.387-2.418,2.201l2.514,1.771c0.451-1.188,0.861-2.17,1.262-3.012
						c2.576-5.746,5.679-4.988,5.679-4.988c-1.968,0.311-2.735,1.986-3.04,3.375c-0.168,1.84,0.619,3.717,2.239,4.857
						c2.418,1.709,5.752,1.135,7.455-1.283C87.284,5.985,80.829-5.76,80.829-5.76z"/>
				</g>
				<g>
					<g>
						
							<linearGradient id="SVGID_9_" gradientUnits="userSpaceOnUse" x1="897.9805" y1="648.5176" x2="1037.9371" y2="485.2313" gradientTransform="matrix(-1 0 0 -1 977.7324 649.6836)">
							<stop  offset="0" style="stop-color:#FDC61D"/>
							<stop  offset="1" style="stop-color:#C0181D"/>
						</linearGradient>
						<path fill-rule="evenodd" clip-rule="evenodd" fill="url(#SVGID_9_)" d="M66.949,13.922c0,0-13.227-2.123-18.547,5.42
							c-1.703,2.418-1.125,5.75,1.293,7.453c1.631,1.137,3.66,1.258,5.342,0.484c1.199-0.762,2.514-2.061,2.145-3.994
							c0,0,1.756,2.664-2.775,7.006c-0.662,0.662-1.451,1.398-2.428,2.209l2.512,1.775c0.453-1.188,0.873-2.191,1.271-3.021
							c2.566-5.746,5.668-4.994,5.668-4.994c-1.955,0.311-2.734,1.998-3.027,3.385c-0.17,1.84,0.609,3.711,2.238,4.857
							c2.408,1.709,5.752,1.125,7.443-1.287C73.404,25.676,66.949,13.922,66.949,13.922z"/>
					</g>
					<g>
						<g>
							
								<linearGradient id="SVGID_10_" gradientUnits="userSpaceOnUse" x1="891.0518" y1="642.5908" x2="1031.0192" y2="479.2921" gradientTransform="matrix(-1 0 0 -1 977.7324 649.6836)">
								<stop  offset="0" style="stop-color:#FDC61D"/>
								<stop  offset="1" style="stop-color:#C0181D"/>
							</linearGradient>
							<path fill-rule="evenodd" clip-rule="evenodd" fill="url(#SVGID_10_)" d="M11.458,92.674c0,0-13.236-2.139-18.545,5.41
								c-1.703,2.418-1.125,5.762,1.293,7.455c1.619,1.15,3.658,1.25,5.33,0.477c1.199-0.746,2.523-2.039,2.156-3.988
								c0,0,1.756,2.676-2.787,7.018c-0.652,0.646-1.439,1.387-2.408,2.203L-1,113.021c0.451-1.189,0.861-2.178,1.271-3.02
								c2.555-5.742,5.656-4.984,5.656-4.984c-1.945,0.299-2.723,1.977-3.027,3.366c-0.168,1.849,0.609,3.728,2.238,4.869
								c2.408,1.703,5.752,1.125,7.465-1.287C17.924,104.424,11.458,92.674,11.458,92.674z"/>
						</g>
						<g>
							
								<linearGradient id="SVGID_11_" gradientUnits="userSpaceOnUse" x1="892.7871" y1="644.0664" x2="1032.7438" y2="480.7801" gradientTransform="matrix(-1 0 0 -1 977.7324 649.6836)">
								<stop  offset="0" style="stop-color:#FDC61D"/>
								<stop  offset="1" style="stop-color:#C0181D"/>
							</linearGradient>
							<path fill-rule="evenodd" clip-rule="evenodd" fill="url(#SVGID_11_)" d="M25.336,72.982c0,0-13.236-2.129-18.547,5.42
								c-1.703,2.412-1.125,5.75,1.295,7.449c1.619,1.141,3.646,1.262,5.33,0.479c1.197-0.742,2.523-2.045,2.154-3.99
								c0,0,1.756,2.676-2.785,7.008c-0.662,0.668-1.451,1.402-2.418,2.213l2.502,1.771c0.451-1.184,0.873-2.188,1.283-3.023
								c2.555-5.74,5.656-4.979,5.656-4.979c-1.957,0.301-2.725,1.982-3.029,3.375c-0.168,1.83,0.621,3.707,2.24,4.863
								c2.408,1.697,5.75,1.119,7.453-1.293C31.792,84.727,25.336,72.982,25.336,72.982z"/>
						</g>
						<g>
							
								<linearGradient id="SVGID_12_" gradientUnits="userSpaceOnUse" x1="894.5234" y1="645.5488" x2="1034.4723" y2="482.2717" gradientTransform="matrix(-1 0 0 -1 977.7324 649.6836)">
								<stop  offset="0" style="stop-color:#FDC61D"/>
								<stop  offset="1" style="stop-color:#C0181D"/>
							</linearGradient>
							<path fill-rule="evenodd" clip-rule="evenodd" fill="url(#SVGID_12_)" d="M39.204,53.292c0,0-13.227-2.113-18.535,5.414
								c-1.713,2.424-1.125,5.766,1.283,7.47c1.619,1.135,3.658,1.25,5.34,0.477c1.199-0.762,2.523-2.054,2.156-4
								c0,0,1.756,2.676-2.787,7.013c-0.662,0.668-1.451,1.393-2.418,2.201l2.514,1.771c0.441-1.176,0.861-2.176,1.262-3.006
								c2.555-5.746,5.666-4.994,5.666-4.994c-1.955,0.314-2.723,1.986-3.027,3.375c-0.18,1.846,0.609,3.723,2.238,4.852
								c2.408,1.709,5.752,1.141,7.445-1.287C45.658,65.045,39.204,53.292,39.204,53.292z"/>
						</g>
						<g>
							
								<linearGradient id="SVGID_13_" gradientUnits="userSpaceOnUse" x1="896.252" y1="647.0303" x2="1036.1969" y2="483.7578" gradientTransform="matrix(-1 0 0 -1 977.7324 649.6836)">
								<stop  offset="0" style="stop-color:#FDC61D"/>
								<stop  offset="1" style="stop-color:#C0181D"/>
							</linearGradient>
							<path fill-rule="evenodd" clip-rule="evenodd" fill="url(#SVGID_13_)" d="M53.07,33.61c0,0-13.224-2.135-18.535,5.414
								c-1.703,2.412-1.125,5.75,1.293,7.453c1.609,1.152,3.648,1.262,5.342,0.479c1.188-0.746,2.523-2.039,2.145-3.988
								c0,0,1.755,2.67-2.785,7.012c-0.664,0.662-1.451,1.393-2.408,2.207l2.512,1.768c0.432-1.184,0.863-2.166,1.262-3.018
								c2.554-5.73,5.667-4.984,5.667-4.984c-1.955,0.305-2.734,1.982-3.039,3.381c-0.178,1.84,0.609,3.723,2.24,4.857
								c2.418,1.703,5.762,1.125,7.453-1.293C59.537,45.364,53.07,33.61,53.07,33.61z"/>
						</g>
						
							<linearGradient id="SVGID_14_" gradientUnits="userSpaceOnUse" x1="898.8506" y1="639.375" x2="980.4823" y2="544.136" gradientTransform="matrix(-1 0 0 -1 977.7324 649.6836)">
							<stop  offset="0" style="stop-color:#FDC61D"/>
							<stop  offset="1" style="stop-color:#C0181D"/>
						</linearGradient>
						<path fill-rule="evenodd" clip-rule="evenodd" fill="url(#SVGID_14_)" d="M68.084,33.215
							c5.32-7.539-1.135-19.293-1.135-19.293"/>
						<g>
							
								<linearGradient id="SVGID_15_" gradientUnits="userSpaceOnUse" x1="899.7041" y1="649.9971" x2="1039.6683" y2="486.702" gradientTransform="matrix(-1 0 0 -1 977.7324 649.6836)">
								<stop  offset="0" style="stop-color:#FDC61D"/>
								<stop  offset="1" style="stop-color:#C0181D"/>
							</linearGradient>
							<path fill-rule="evenodd" clip-rule="evenodd" fill="url(#SVGID_15_)" d="M80.829-5.76c0,0-13.228-2.123-18.548,5.42
								c-1.713,2.408-1.115,5.74,1.293,7.453c1.609,1.137,3.658,1.252,5.33,0.469c1.209-0.752,2.523-2.039,2.166-3.99
								c0,0,1.746,2.666-2.797,7.014c-0.65,0.666-1.451,1.387-2.418,2.201l2.514,1.771c0.451-1.188,0.861-2.17,1.262-3.012
								c2.576-5.746,5.679-4.988,5.679-4.988c-1.968,0.311-2.735,1.986-3.04,3.375c-0.168,1.84,0.619,3.717,2.239,4.857
								c2.418,1.709,5.752,1.135,7.455-1.283C87.284,5.985,80.829-5.76,80.829-5.76z"/>
						</g>
					</g>
				</g>
				<g>
					<g>
						
							<linearGradient id="SVGID_16_" gradientUnits="userSpaceOnUse" x1="828.2607" y1="536.498" x2="968.2135" y2="373.2164" gradientTransform="matrix(-0.73 0.6835 -0.6835 -0.73 1069.4808 -132.0168)">
							<stop  offset="0" style="stop-color:#FDC61D"/>
							<stop  offset="1" style="stop-color:#C0181D"/>
						</linearGradient>
						<path fill-rule="evenodd" clip-rule="evenodd" fill="url(#SVGID_16_)" d="M97.563,60.518c0,0-11.105,7.49-9.834,16.633
							c0.408,2.929,3.107,4.966,6.037,4.557c1.967-0.285,3.531-1.584,4.23-3.298c0.355-1.376,0.427-3.222-1.164-4.381
							c0,0,3.102,0.745,2.762,7.011c-0.031,0.936-0.104,2.013-0.262,3.271l3.047-0.421c-0.481-1.176-0.861-2.196-1.137-3.074
							c-2.055-5.948,0.724-7.52,0.724-7.52c-1.215,1.563-0.63,3.327,0.104,4.54c1.134,1.459,2.981,2.292,4.954,2.016
							c2.926-0.398,4.967-3.11,4.553-6.027C110.308,64.685,97.563,60.518,97.563,60.518z"/>
					</g>
					<g>
						<g>
							
								<linearGradient id="SVGID_17_" gradientUnits="userSpaceOnUse" x1="821.332" y1="530.5723" x2="961.3001" y2="367.2727" gradientTransform="matrix(-0.73 0.6835 -0.6835 -0.73 1069.4808 -132.0168)">
								<stop  offset="0" style="stop-color:#FDC61D"/>
								<stop  offset="1" style="stop-color:#C0181D"/>
							</linearGradient>
							<path fill-rule="evenodd" clip-rule="evenodd" fill="url(#SVGID_17_)" d="M110.88,155.931c0,0-11.124,7.486-9.839,16.625
								c0.409,2.929,3.116,4.975,6.039,4.558c1.968-0.267,3.524-1.588,4.217-3.295c0.365-1.364,0.447-3.213-1.152-4.385
								c0,0,3.11,0.753,2.762,7.027c-0.034,0.918-0.104,1.996-0.252,3.254l3.039-0.416c-0.482-1.177-0.859-2.179-1.135-3.073
								c-2.061-5.938,0.723-7.505,0.723-7.505c-1.217,1.548-0.637,3.304,0.09,4.525c1.141,1.465,2.992,2.306,4.961,2.024
								c2.922-0.402,4.969-3.109,4.57-6.041C123.631,160.088,110.88,155.931,110.88,155.931z"/>
						</g>
						<g>
							
								<linearGradient id="SVGID_18_" gradientUnits="userSpaceOnUse" x1="823.0703" y1="532.0459" x2="963.0231" y2="368.7642" gradientTransform="matrix(-0.73 0.6835 -0.6835 -0.73 1069.4808 -132.0168)">
								<stop  offset="0" style="stop-color:#FDC61D"/>
								<stop  offset="1" style="stop-color:#C0181D"/>
							</linearGradient>
							<path fill-rule="evenodd" clip-rule="evenodd" fill="url(#SVGID_18_)" d="M107.553,132.071c0,0-11.117,7.492-9.834,16.633
								c0.404,2.925,3.108,4.966,6.036,4.553c1.962-0.274,3.524-1.571,4.218-3.294c0.367-1.36,0.445-3.218-1.154-4.386
								c0,0,3.11,0.754,2.756,7.02c-0.026,0.94-0.1,2.016-0.252,3.268l3.037-0.417c-0.479-1.172-0.857-2.193-1.13-3.084
								c-2.059-5.936,0.726-7.5,0.726-7.5c-1.223,1.558-0.633,3.31,0.096,4.534c1.129,1.451,2.987,2.281,4.959,2.02
								c2.918-0.407,4.963-3.113,4.558-6.038C120.291,136.231,107.553,132.071,107.553,132.071z"/>
						</g>
						<g>
							
								<linearGradient id="SVGID_19_" gradientUnits="userSpaceOnUse" x1="824.8018" y1="533.5322" x2="964.7563" y2="370.2484" gradientTransform="matrix(-0.73 0.6835 -0.6835 -0.73 1069.4808 -132.0168)">
								<stop  offset="0" style="stop-color:#FDC61D"/>
								<stop  offset="1" style="stop-color:#C0181D"/>
							</linearGradient>
							<path fill-rule="evenodd" clip-rule="evenodd" fill="url(#SVGID_19_)" d="M104.217,108.219c0,0-11.1,7.498-9.83,16.621
								c0.406,2.939,3.119,4.978,6.043,4.576c1.957-0.278,3.525-1.588,4.224-3.302c0.354-1.376,0.438-3.225-1.16-4.394
								c0,0,3.11,0.753,2.759,7.024c-0.026,0.94-0.107,2.008-0.26,3.26l3.045-0.426c-0.48-1.159-0.857-2.177-1.133-3.056
								c-2.063-5.941,0.723-7.519,0.723-7.519c-1.213,1.565-0.63,3.311,0.097,4.532c1.13,1.471,2.989,2.302,4.95,2.012
								c2.926-0.398,4.979-3.099,4.555-6.028C116.962,112.388,104.217,108.219,104.217,108.219z"/>
						</g>
						<g>
							
								<linearGradient id="SVGID_20_" gradientUnits="userSpaceOnUse" x1="826.5322" y1="535.0117" x2="966.4782" y2="371.738" gradientTransform="matrix(-0.73 0.6835 -0.6835 -0.73 1069.4808 -132.0168)">
								<stop  offset="0" style="stop-color:#FDC61D"/>
								<stop  offset="1" style="stop-color:#C0181D"/>
							</linearGradient>
							<path fill-rule="evenodd" clip-rule="evenodd" fill="url(#SVGID_20_)" d="M100.887,84.374c0,0-11.112,7.48-9.829,16.62
								c0.405,2.925,3.108,4.967,6.038,4.558c1.962-0.259,3.525-1.573,4.227-3.302c0.356-1.356,0.447-3.214-1.161-4.378
								c0,0,3.106,0.75,2.759,7.022c-0.031,0.938-0.107,2.009-0.248,3.257l3.041-0.427c-0.494-1.158-0.851-2.171-1.142-3.064
								c-2.052-5.929,0.73-7.513,0.73-7.513c-1.219,1.56-0.642,3.316,0.093,4.546c1.127,1.464,2.988,2.301,4.955,2.015
								c2.929-0.41,4.975-3.117,4.557-6.038C113.641,88.534,100.887,84.374,100.887,84.374z"/>
						</g>
						
							<linearGradient id="SVGID_21_" gradientUnits="userSpaceOnUse" x1="829.1318" y1="527.3555" x2="910.7604" y2="432.1202" gradientTransform="matrix(-0.73 0.6835 -0.6835 -0.73 1069.4808 -132.0168)">
							<stop  offset="0" style="stop-color:#FDC61D"/>
							<stop  offset="1" style="stop-color:#C0181D"/>
						</linearGradient>
						<path fill-rule="evenodd" clip-rule="evenodd" fill="url(#SVGID_21_)" d="M111.576,73.825
							c-1.269-9.14-14.014-13.307-14.014-13.307"/>
						<g>
							
								<linearGradient id="SVGID_22_" gradientUnits="userSpaceOnUse" x1="829.9854" y1="537.9785" x2="969.9474" y2="374.6859" gradientTransform="matrix(-0.73 0.6835 -0.6835 -0.73 1069.4808 -132.0168)">
								<stop  offset="0" style="stop-color:#FDC61D"/>
								<stop  offset="1" style="stop-color:#C0181D"/>
							</linearGradient>
							<path fill-rule="evenodd" clip-rule="evenodd" fill="url(#SVGID_22_)" d="M94.242,36.664c0,0-11.107,7.491-9.835,16.634
								c0.396,2.929,3.109,4.952,6.038,4.557c1.951-0.27,3.525-1.586,4.211-3.301c0.369-1.375,0.448-3.213-1.146-4.393
								c0,0,3.098,0.752,2.752,7.031c-0.02,0.931-0.111,2.004-0.26,3.259l3.045-0.425c-0.482-1.175-0.854-2.172-1.137-3.061
								c-2.047-5.956,0.736-7.523,0.736-7.523c-1.225,1.572-0.64,3.32,0.087,4.542c1.135,1.458,2.992,2.29,4.954,2.016
								c2.934-0.405,4.975-3.103,4.565-6.032C106.98,40.825,94.242,36.664,94.242,36.664z"/>
						</g>
					</g>
				</g>
			</g>
		</g>
	</g>
	<polygon opacity="0.31" clip-path="url(#SVGID_2_)" fill="#FFFFFF" points="127.271,233.236 136.43,219.797 136.397,-12.439 
		86.114,-11.905 	"/>
	
		<linearGradient id="SVGID_23_" gradientUnits="userSpaceOnUse" x1="80.3799" y1="112.0283" x2="276.3564" y2="112.0283" gradientTransform="matrix(0.7025 -0.7116 0.7116 0.7025 -58.1696 154.6815)">
		<stop  offset="0" style="stop-color:#FDC61D"/>
		<stop  offset="1" style="stop-color:#C0181D"/>
	</linearGradient>
	<polygon clip-path="url(#SVGID_2_)" fill="url(#SVGID_23_)" points="129.512,0.317 159.515,-18.754 163.023,213.798 
		129.567,227.067 	"/>
	<g clip-path="url(#SVGID_2_)">
		<g>
			<g>
				
					<linearGradient id="SVGID_24_" gradientUnits="userSpaceOnUse" x1="62.3125" y1="226.6563" x2="209.2597" y2="75.9187" gradientTransform="matrix(0.7025 -0.7116 0.7116 0.7025 -58.1696 154.6815)">
					<stop  offset="0" style="stop-color:#FDC61D"/>
					<stop  offset="1" style="stop-color:#C0181D"/>
				</linearGradient>
				<path fill="url(#SVGID_24_)" d="M141.446,207.725c1.117,1.532,2.124,3.23,2.861,5.213c0.186,0.493,0.357,1.001,0.506,1.534
					c0.122,0.438,0.229,0.639,0.324,0.645c0.027,0.003,0.06-0.016,0.087-0.057c0.029,0.039,0.056,0.062,0.085,0.057
					c0.304-0.01,0.584-1.398,0.677-1.657c0.753-2.05,1.848-3.93,3.162-5.652c3.464-4.566,7.94-7.583,9.143-12.156
					c0.801-3.04,0.09-6.68-1.955-9.053c-1.161-1.352-2.686-2.177-4.357-2.195c-2.018-0.021-3.84,1.144-5.085,2.996
					c-0.651,0.97-1.146,2.128-1.434,3.404c-0.751-3.737-3.31-6.499-6.387-6.531c-1.673-0.016-3.209,0.783-4.398,2.107
					c-2.092,2.338-2.877,5.958-2.135,9.017C133.65,199.985,138.064,203.095,141.446,207.725z"/>
			</g>
			<g>
				
					<linearGradient id="SVGID_25_" gradientUnits="userSpaceOnUse" x1="62.7773" y1="227.0938" x2="209.7053" y2="76.3759" gradientTransform="matrix(0.7025 -0.7116 0.7116 0.7025 -58.1696 154.6815)">
					<stop  offset="0" style="stop-color:#FDC61D"/>
					<stop  offset="1" style="stop-color:#C0181D"/>
				</linearGradient>
				<path fill="url(#SVGID_25_)" d="M141.494,176.944c1.119,1.538,2.125,3.235,2.859,5.212c0.187,0.497,0.358,1.004,0.506,1.529
					c0.123,0.445,0.229,0.646,0.324,0.652c0.028,0.003,0.058-0.021,0.086-0.061c0.03,0.044,0.055,0.063,0.087,0.061
					c0.301-0.013,0.581-1.402,0.677-1.657c0.753-2.05,1.847-3.932,3.158-5.656c3.472-4.562,7.942-7.585,9.147-12.153
					c0.801-3.04,0.089-6.678-1.953-9.057c-1.162-1.348-2.683-2.172-4.357-2.188c-2.018-0.022-3.84,1.143-5.087,2.992
					c-0.653,0.972-1.147,2.135-1.433,3.407c-0.751-3.735-3.311-6.498-6.386-6.529c-1.675-0.015-3.211,0.775-4.398,2.105
					c-2.09,2.332-2.876,5.958-2.136,9.012C133.703,169.21,138.112,172.316,141.494,176.944z"/>
			</g>
			<g>
				
					<linearGradient id="SVGID_26_" gradientUnits="userSpaceOnUse" x1="63.2314" y1="227.542" x2="210.1638" y2="76.8197" gradientTransform="matrix(0.7025 -0.7116 0.7116 0.7025 -58.1696 154.6815)">
					<stop  offset="0" style="stop-color:#FDC61D"/>
					<stop  offset="1" style="stop-color:#C0181D"/>
				</linearGradient>
				<path fill="url(#SVGID_26_)" d="M141.539,146.172c1.123,1.535,2.124,3.233,2.865,5.21c0.182,0.493,0.354,0.999,0.502,1.531
					c0.122,0.439,0.229,0.642,0.325,0.644c0.028,0.004,0.058-0.015,0.084-0.052c0.028,0.04,0.057,0.063,0.088,0.055
					c0.302-0.007,0.583-1.399,0.672-1.654c0.757-2.048,1.851-3.934,3.167-5.657c3.47-4.56,7.939-7.582,9.145-12.149
					c0.802-3.042,0.087-6.679-1.955-9.057c-1.162-1.349-2.684-2.175-4.354-2.19c-2.022-0.021-3.842,1.138-5.087,2.992
					c-0.651,0.97-1.146,2.135-1.434,3.409c-0.751-3.733-3.311-6.499-6.388-6.528c-1.676-0.022-3.211,0.776-4.394,2.104
					c-2.095,2.334-2.878,5.958-2.139,9.013C133.752,138.435,138.162,141.54,141.539,146.172z"/>
			</g>
			<g>
				
					<linearGradient id="SVGID_27_" gradientUnits="userSpaceOnUse" x1="63.6816" y1="227.9941" x2="210.623" y2="77.2625" gradientTransform="matrix(0.7025 -0.7116 0.7116 0.7025 -58.1696 154.6815)">
					<stop  offset="0" style="stop-color:#FDC61D"/>
					<stop  offset="1" style="stop-color:#C0181D"/>
				</linearGradient>
				<path fill="url(#SVGID_27_)" d="M141.588,115.397c1.123,1.529,2.125,3.231,2.862,5.206c0.187,0.495,0.355,1.005,0.502,1.531
					c0.125,0.443,0.231,0.645,0.325,0.65c0.032,0.001,0.059-0.016,0.087-0.057c0.032,0.037,0.056,0.059,0.089,0.057
					c0.302-0.009,0.576-1.4,0.674-1.656c0.754-2.051,1.848-3.932,3.16-5.659c3.473-4.561,7.943-7.579,9.148-12.146
					c0.795-3.042,0.089-6.686-1.958-9.061c-1.161-1.347-2.679-2.173-4.354-2.188c-2.021-0.02-3.839,1.141-5.082,2.993
					c-0.657,0.968-1.151,2.133-1.438,3.408c-0.752-3.737-3.311-6.5-6.387-6.531c-1.675-0.017-3.208,0.783-4.395,2.103
					c-2.093,2.34-2.876,5.96-2.137,9.018C133.798,107.653,138.205,110.765,141.588,115.397z"/>
			</g>
			<g>
				
					<linearGradient id="SVGID_28_" gradientUnits="userSpaceOnUse" x1="64.1479" y1="228.4287" x2="211.0767" y2="77.7101" gradientTransform="matrix(0.7025 -0.7116 0.7116 0.7025 -58.1696 154.6815)">
					<stop  offset="0" style="stop-color:#FDC61D"/>
					<stop  offset="1" style="stop-color:#C0181D"/>
				</linearGradient>
				<path fill="url(#SVGID_28_)" d="M141.636,84.618c1.121,1.537,2.126,3.234,2.861,5.211c0.183,0.495,0.354,1.001,0.506,1.529
					c0.122,0.445,0.226,0.644,0.32,0.648c0.032,0.007,0.061-0.017,0.09-0.058c0.027,0.042,0.056,0.063,0.085,0.06
					c0.307-0.009,0.583-1.401,0.675-1.657c0.753-2.053,1.848-3.933,3.16-5.654c3.472-4.564,7.945-7.586,9.15-12.154
					c0.798-3.039,0.091-6.674-1.956-9.057c-1.161-1.347-2.68-2.171-4.355-2.187c-2.018-0.021-3.84,1.144-5.086,2.992
					c-0.654,0.971-1.148,2.136-1.433,3.408c-0.751-3.734-3.312-6.498-6.387-6.53c-1.676-0.015-3.212,0.777-4.398,2.105
					c-2.091,2.333-2.877,5.96-2.136,9.013C133.845,76.883,138.257,79.993,141.636,84.618z"/>
			</g>
			<g>
				
					<linearGradient id="SVGID_29_" gradientUnits="userSpaceOnUse" x1="64.5962" y1="228.8809" x2="211.5335" y2="78.1534" gradientTransform="matrix(0.7025 -0.7116 0.7116 0.7025 -58.1696 154.6815)">
					<stop  offset="0" style="stop-color:#FDC61D"/>
					<stop  offset="1" style="stop-color:#C0181D"/>
				</linearGradient>
				<path fill="url(#SVGID_29_)" d="M141.686,53.842c1.12,1.537,2.123,3.231,2.861,5.214c0.182,0.492,0.355,0.997,0.502,1.529
					c0.124,0.439,0.23,0.64,0.324,0.645c0.03,0.003,0.06-0.016,0.09-0.057c0.026,0.042,0.056,0.062,0.084,0.059
					c0.304-0.012,0.583-1.4,0.677-1.659c0.755-2.046,1.848-3.932,3.16-5.654c3.47-4.562,7.942-7.582,9.147-12.152
					c0.8-3.04,0.089-6.678-1.956-9.053c-1.161-1.352-2.685-2.176-4.354-2.191c-2.018-0.021-3.839,1.142-5.087,2.992
					c-0.652,0.97-1.146,2.129-1.43,3.407c-0.757-3.738-3.314-6.502-6.391-6.534c-1.67-0.013-3.209,0.782-4.398,2.107
					c-2.091,2.339-2.878,5.959-2.136,9.016C133.891,46.104,138.305,49.212,141.686,53.842z"/>
			</g>
			<g>
				
					<linearGradient id="SVGID_30_" gradientUnits="userSpaceOnUse" x1="65.0562" y1="229.3262" x2="211.9904" y2="78.6019" gradientTransform="matrix(0.7025 -0.7116 0.7116 0.7025 -58.1696 154.6815)">
					<stop  offset="0" style="stop-color:#FDC61D"/>
					<stop  offset="1" style="stop-color:#C0181D"/>
				</linearGradient>
				<path fill="url(#SVGID_30_)" d="M141.736,23.065c1.117,1.535,2.122,3.232,2.856,5.211c0.187,0.494,0.358,1.001,0.508,1.527
					c0.12,0.446,0.228,0.646,0.322,0.651c0.028,0.003,0.056-0.019,0.085-0.059c0.031,0.042,0.06,0.064,0.087,0.062
					c0.305-0.012,0.582-1.404,0.678-1.659c0.753-2.05,1.849-3.931,3.159-5.656c3.473-4.561,7.942-7.586,9.147-12.154
					c0.8-3.04,0.092-6.675-1.954-9.056c-1.165-1.348-2.682-2.173-4.358-2.187c-2.018-0.021-3.839,1.142-5.082,2.995
					c-0.656,0.968-1.15,2.132-1.435,3.405c-0.751-3.736-3.313-6.499-6.387-6.53c-1.677-0.014-3.211,0.776-4.398,2.105
					c-2.092,2.333-2.877,5.958-2.134,9.014C133.941,15.327,138.354,18.438,141.736,23.065z"/>
			</g>
		</g>
	</g>
</g>
</svg>
