<?xml version="1.0" encoding="utf-8"?>
<!-- Generator: Adobe Illustrator 15.1.0, SVG Export Plug-In . SVG Version: 6.00 Build 0)  -->
<!DOCTYPE svg PUBLIC "-//W3C//DTD SVG 1.1//EN" "http://www.w3.org/Graphics/SVG/1.1/DTD/svg11.dtd">
<svg version="1.1" id="Laag_1" xmlns="http://www.w3.org/2000/svg" xmlns:xlink="http://www.w3.org/1999/xlink" x="0px" y="0px"
	 width="152.061px" height="215.641px" viewBox="0 0 152.061 215.641" enable-background="new 0 0 152.061 215.641"
	 xml:space="preserve">
<g>
	<polyline fill="#FFFFFF" stroke="#BF5A17" stroke-miterlimit="10" points="0.002,207.432 0.361,210.6 1.658,213.264 3.457,214.99 
		5.76,215.641 146.16,215.641 148.463,214.992 150.336,213.266 151.631,210.602 152.064,207.434 152.064,8.281 151.631,4.969 
		150.336,2.377 148.463,0.576 146.16,0 5.76,0 3.455,0.576 1.656,2.377 0.359,4.969 0,8.281 0,207.434 	"/>
</g>
<g>
	<polyline fill="#D35813" stroke="#BF5A17" stroke-miterlimit="10" points="7.802,199.812 8.123,202.739 9.281,205.202 
		10.887,206.799 12.944,207.4 138.329,207.4 140.385,206.802 142.059,205.204 143.214,202.742 143.601,199.812 143.601,15.658 
		143.214,12.594 142.059,10.198 140.385,8.533 138.329,8 12.944,8 10.886,8.533 9.279,10.198 8.121,12.594 7.8,15.658 7.8,199.812 	
		"/>
</g>
<path opacity="0.2" fill="#FFFFFF" enable-background="new    " d="M302.776,155.982c0-63.744-49.938-115.417-111.537-115.417
	c-61.602,0-111.538,51.673-111.538,115.417c0,63.743,49.937,115.416,111.538,115.416
	C252.838,271.398,302.776,219.725,302.776,155.982z M119.116,155.982c0-41.217,32.29-74.63,72.123-74.63
	c39.832,0,72.121,33.413,72.121,74.63s-32.289,74.628-72.121,74.628C151.406,230.61,119.116,197.199,119.116,155.982z"/>
<path opacity="0.4" fill="#333333" enable-background="new    " d="M145.937,449.015c86.122,0.001,155.938-69.815,155.938-155.938
	c0-86.121-69.815-155.938-155.938-155.938C59.815,137.139-10,206.953-10,293.077C-10,379.2,59.815,449.015,145.937,449.015z
	 M145.937,192.244c55.688,0,100.832,45.144,100.832,100.831c0,55.688-45.145,100.834-100.832,100.834
	c-55.689,0-100.832-45.146-100.832-100.834C45.105,237.387,90.249,192.244,145.937,192.244z"/>
<rect x="28.8" y="32.602" fill="none" width="96" height="33.356"/>
<text transform="matrix(1 0 0 1 36.8005 58.5095)" fill="#FFFFFF" font-family="'SegoeUISymbol'" font-size="35">♠♣♥♦</text>
<image overflow="visible" enable-background="new    " width="1080" height="225" xlink:href="1536CBE8.png"  transform="matrix(0.0781 0 0 0.0781 33.5266 182.3533)">
</image>
</svg>
