<?xml version="1.0" encoding="utf-8"?>
<!-- Generator: Adobe Illustrator 15.1.0, SVG Export Plug-In . SVG Version: 6.00 Build 0)  -->
<!DOCTYPE svg PUBLIC "-//W3C//DTD SVG 1.1//EN" "http://www.w3.org/Graphics/SVG/1.1/DTD/svg11.dtd">
<svg version="1.1" id="Laag_1" xmlns="http://www.w3.org/2000/svg" xmlns:xlink="http://www.w3.org/1999/xlink" x="0px" y="0px"
	 width="152.06px" height="215.64px" viewBox="0 0 152.06 215.64" enable-background="new 0 0 152.06 215.64" xml:space="preserve">
<g>
	<polygon fill-rule="evenodd" clip-rule="evenodd" fill="#FFFFFF" points="5.758,0 146.158,0 148.461,0.576 150.334,2.376 
		151.629,4.969 152.062,8.28 152.062,207.433 151.629,210.601 150.334,213.265 148.461,214.992 146.158,215.64 5.758,215.64 
		3.453,214.992 1.654,213.265 0.357,210.601 -0.002,207.433 -0.002,8.28 0.357,4.969 1.654,2.376 3.453,0.576 	"/>
	<g>
		<path fill="#BC181D" d="M6.942,12.306l5.322-2.596h0.531v18.464c0,1.226,0.051,1.989,0.154,2.29
			c0.102,0.301,0.314,0.532,0.637,0.693s0.978,0.253,1.967,0.274v0.597H7.329v-0.597c1.033-0.021,1.699-0.11,2-0.267
			C9.63,31.01,9.84,30.8,9.958,30.536c0.118-0.263,0.178-1.051,0.178-2.362V16.369c0-1.591-0.055-2.612-0.162-3.063
			c-0.074-0.344-0.212-0.597-0.41-0.758c-0.199-0.161-0.438-0.242-0.719-0.242c-0.396,0-0.951,0.167-1.66,0.5L6.942,12.306z"/>
		<path fill="#BC181D" d="M16.155,21.224c0-2.494,0.376-4.642,1.129-6.442c0.752-1.801,1.752-3.142,3-4.023
			c0.967-0.699,1.967-1.048,2.999-1.048c1.677,0,3.183,0.854,4.515,2.563c1.667,2.118,2.5,4.988,2.5,8.611
			c0,2.537-0.365,4.692-1.097,6.467c-0.731,1.773-1.663,3.062-2.798,3.862s-2.229,1.201-3.281,1.201
			c-2.086,0-3.822-1.23-5.209-3.692C16.741,26.647,16.155,24.147,16.155,21.224z M19.315,21.627c0,3.01,0.371,5.467,1.113,7.369
			c0.613,1.603,1.526,2.403,2.741,2.403c0.581,0,1.183-0.261,1.806-0.782c0.624-0.521,1.098-1.396,1.42-2.621
			c0.494-1.849,0.742-4.456,0.742-7.82c0-2.494-0.259-4.575-0.774-6.241c-0.388-1.236-0.888-2.112-1.5-2.629
			c-0.44-0.354-0.974-0.532-1.597-0.532c-0.73,0-1.381,0.328-1.951,0.984c-0.773,0.893-1.301,2.295-1.58,4.209
			C19.456,17.88,19.315,19.767,19.315,21.627z"/>
		<path fill="#BC181D" d="M145.116,203.335l-5.322,2.596h-0.531v-18.465c0-1.225-0.051-1.988-0.154-2.289
			c-0.102-0.301-0.314-0.532-0.637-0.693c-0.322-0.162-0.978-0.253-1.967-0.274v-0.597h8.225v0.597c-1.033,0.021-1.699,0.11-2,0.267
			c-0.301,0.155-0.511,0.365-0.629,0.629c-0.118,0.263-0.178,1.051-0.178,2.361v11.805c0,1.592,0.055,2.613,0.162,3.064
			c0.074,0.344,0.212,0.597,0.41,0.758c0.199,0.161,0.438,0.242,0.719,0.242c0.396,0,0.951-0.167,1.66-0.5L145.116,203.335z"/>
		<path fill="#BC181D" d="M135.903,194.417c0,2.494-0.376,4.642-1.129,6.442c-0.752,1.8-1.752,3.142-3,4.023
			c-0.967,0.698-1.967,1.048-2.999,1.048c-1.677,0-3.183-0.854-4.515-2.564c-1.667-2.117-2.5-4.988-2.5-8.611
			c0-2.537,0.365-4.691,1.097-6.466s1.663-3.062,2.798-3.862s2.229-1.201,3.281-1.201c2.086,0,3.822,1.23,5.209,3.692
			C135.317,188.993,135.903,191.493,135.903,194.417z M132.743,194.014c0-3.011-0.371-5.467-1.113-7.37
			c-0.613-1.602-1.526-2.402-2.741-2.402c-0.581,0-1.183,0.261-1.806,0.782c-0.624,0.521-1.098,1.396-1.42,2.62
			c-0.494,1.85-0.742,4.457-0.742,7.821c0,2.494,0.259,4.575,0.774,6.241c0.388,1.236,0.888,2.112,1.5,2.629
			c0.44,0.354,0.974,0.531,1.597,0.531c0.73,0,1.381-0.328,1.951-0.983c0.773-0.893,1.301-2.296,1.58-4.209
			S132.743,195.874,132.743,194.014z"/>
	</g>
	<path fill-rule="evenodd" clip-rule="evenodd" fill="#C51C1D" d="M103.855,36.528c0,0,4.084-12.015,12.373-4.934
		c0,0,10.049,9.088-4.998,20.752c0,0-5.902,4.576-7.475,11.953h-0.24c-1.572-7.377-7.475-11.953-7.475-11.953
		c-15.047-11.664-4.998-20.752-4.998-20.752c8.289-7.081,12.373,4.934,12.373,4.934"/>
	<path fill-rule="evenodd" clip-rule="evenodd" fill="#C51C1D" d="M103.605,118.947c0,0,4.084-12.015,12.373-4.934
		c0,0,10.049,9.087-4.997,20.751c0,0-5.903,4.577-7.475,11.955h-0.241c-1.572-7.378-7.475-11.955-7.475-11.955
		c-15.047-11.664-4.998-20.751-4.998-20.751c8.29-7.081,12.373,4.934,12.373,4.934"/>
	<path fill-rule="evenodd" clip-rule="evenodd" fill="#C51C1D" d="M76.606,138.318c0,0,4.084-12.015,12.373-4.934
		c0,0,10.049,9.087-4.997,20.751c0,0-5.903,4.577-7.475,11.955h-0.241c-1.572-7.378-7.475-11.955-7.475-11.955
		c-15.047-11.664-4.998-20.751-4.998-20.751c8.29-7.081,12.373,4.934,12.373,4.934"/>
	<path fill-rule="evenodd" clip-rule="evenodd" fill="#C51C1D" d="M76.606,58.318c0,0,4.084-12.015,12.373-4.934
		c0,0,10.049,9.087-4.997,20.751c0,0-5.903,4.577-7.475,11.955h-0.241c-1.572-7.378-7.475-11.955-7.475-11.955
		c-15.047-11.664-4.998-20.751-4.998-20.751c8.29-7.081,12.373,4.934,12.373,4.934"/>
	<path fill-rule="evenodd" clip-rule="evenodd" fill="#C51C1D" d="M103.541,77.651c0,0,4.084-12.015,12.373-4.934
		c0,0,10.049,9.087-4.998,20.751c0,0-5.902,4.577-7.475,11.955h-0.24c-1.572-7.378-7.475-11.955-7.475-11.955
		c-15.047-11.664-4.998-20.751-4.998-20.751c8.289-7.081,12.373,4.934,12.373,4.934"/>
	<path fill-rule="evenodd" clip-rule="evenodd" fill="#C51C1D" d="M103.855,158.968c0,0,4.084-12.016,12.373-4.934
		c0,0,10.049,9.088-4.998,20.752c0,0-5.902,4.576-7.475,11.953h-0.24c-1.572-7.377-7.475-11.953-7.475-11.953
		c-15.047-11.664-4.998-20.752-4.998-20.752c8.289-7.082,12.373,4.934,12.373,4.934"/>
	<path fill-rule="evenodd" clip-rule="evenodd" fill="#C51C1D" d="M48.855,36.528c0,0,4.084-12.015,12.373-4.934
		c0,0,10.049,9.088-4.998,20.752c0,0-5.902,4.576-7.475,11.953h-0.24c-1.572-7.377-7.475-11.953-7.475-11.953
		c-15.047-11.664-4.998-20.752-4.998-20.752c8.289-7.081,12.373,4.934,12.373,4.934"/>
	<path fill-rule="evenodd" clip-rule="evenodd" fill="#C51C1D" d="M48.605,118.947c0,0,4.084-12.015,12.373-4.934
		c0,0,10.049,9.087-4.997,20.751c0,0-5.903,4.577-7.475,11.955h-0.241c-1.572-7.378-7.475-11.955-7.475-11.955
		c-15.047-11.664-4.998-20.751-4.998-20.751c8.29-7.081,12.373,4.934,12.373,4.934"/>
	<path fill-rule="evenodd" clip-rule="evenodd" fill="#C51C1D" d="M48.541,77.651c0,0,4.084-12.015,12.373-4.934
		c0,0,10.049,9.087-4.998,20.751c0,0-5.902,4.577-7.475,11.955h-0.24c-1.572-7.378-7.475-11.955-7.475-11.955
		c-15.047-11.664-4.998-20.751-4.998-20.751c8.289-7.081,12.373,4.934,12.373,4.934"/>
	<path fill-rule="evenodd" clip-rule="evenodd" fill="#C51C1D" d="M48.855,158.968c0,0,4.084-12.016,12.373-4.934
		c0,0,10.049,9.088-4.998,20.752c0,0-5.902,4.576-7.475,11.953h-0.24c-1.572-7.377-7.475-11.953-7.475-11.953
		c-15.047-11.664-4.998-20.752-4.998-20.752c8.289-7.082,12.373,4.934,12.373,4.934"/>
	<g>
		<path fill-rule="evenodd" clip-rule="evenodd" fill="#C51C1D" d="M16.453,41.876c0,0,1.666-4.902,5.048-2.013
			c0,0,4.1,3.707-2.038,8.466c0,0-2.408,1.866-3.05,4.876h-0.099c-0.641-3.01-3.049-4.876-3.049-4.876
			c-6.139-4.759-2.039-8.466-2.039-8.466c3.382-2.89,5.047,2.013,5.047,2.013"/>
		<path fill-rule="evenodd" clip-rule="evenodd" fill="#C51C1D" d="M133.835,175.614c0,0-1.666,4.902-5.048,2.014
			c0,0-4.1-3.707,2.039-8.467c0,0,2.408-1.865,3.049-4.875h0.099c0.642,3.01,3.05,4.875,3.05,4.875
			c6.138,4.76,2.038,8.467,2.038,8.467c-3.382,2.889-5.047-2.014-5.047-2.014"/>
	</g>
</g>
</svg>
