<?xml version="1.0" encoding="utf-8"?>
<!-- Generator: Adobe Illustrator 15.1.0, SVG Export Plug-In . SVG Version: 6.00 Build 0)  -->
<!DOCTYPE svg PUBLIC "-//W3C//DTD SVG 1.1//EN" "http://www.w3.org/Graphics/SVG/1.1/DTD/svg11.dtd">
<svg version="1.1" id="Laag_1" xmlns="http://www.w3.org/2000/svg" xmlns:xlink="http://www.w3.org/1999/xlink" x="0px" y="0px"
	 width="152.06px" height="215.64px" viewBox="0 0 152.06 215.64" enable-background="new 0 0 152.06 215.64" xml:space="preserve">
<g>
	<polygon fill-rule="evenodd" clip-rule="evenodd" fill="#FFFFFF" points="5.758,0 146.158,0 148.461,0.576 150.334,2.375 
		151.629,4.967 152.062,8.28 152.062,207.434 151.629,210.602 150.334,213.266 148.461,214.992 146.158,215.641 5.758,215.641 
		3.453,214.992 1.654,213.266 0.357,210.602 -0.002,207.434 -0.002,8.28 0.357,4.967 1.654,2.375 3.453,0.576 	"/>
	<path fill="#BC181D" d="M21.871,24.118h-8.467l-1.484,3.451c-0.365,0.85-0.547,1.484-0.547,1.903c0,0.333,0.158,0.626,0.475,0.879
		c0.317,0.253,1.003,0.417,2.057,0.491v0.598H7.018v-0.598c0.914-0.16,1.506-0.371,1.774-0.629c0.548-0.516,1.155-1.564,1.822-3.145
		l7.692-17.996h0.564l7.611,18.189c0.613,1.463,1.17,2.412,1.669,2.847c0.5,0.436,1.196,0.681,2.089,0.733v0.598h-8.628v-0.598
		c0.871-0.043,1.46-0.188,1.767-0.436c0.306-0.246,0.459-0.548,0.459-0.902c0-0.473-0.215-1.221-0.645-2.242L21.871,24.118z
		 M21.419,22.924l-3.709-8.836l-3.806,8.836H21.419z"/>
	<path fill="#BC181D" d="M131.19,190.346h8.466l1.484-3.451c0.365-0.85,0.548-1.484,0.548-1.902c0-0.334-0.158-0.627-0.476-0.879
		c-0.316-0.254-1.002-0.418-2.057-0.492v-0.598h6.887v0.598c-0.914,0.16-1.506,0.371-1.773,0.629
		c-0.549,0.516-1.156,1.564-1.822,3.145l-7.693,17.996h-0.564l-7.611-18.189c-0.612-1.463-1.169-2.412-1.668-2.846
		c-0.5-0.436-1.197-0.682-2.089-0.734v-0.598h8.628v0.598c-0.871,0.043-1.46,0.188-1.767,0.436c-0.306,0.246-0.46,0.549-0.46,0.902
		c0,0.473,0.216,1.221,0.646,2.242L131.19,190.346z M131.643,191.539l3.709,8.836l3.805-8.836H131.643z"/>
	<circle fill="#BC181D" cx="76.324" cy="156.729" r="6"/>
	<circle fill="#BC181D" cx="77.118" cy="54.523" r="4.793"/>
	<path fill-rule="evenodd" clip-rule="evenodd" fill="#C51C1D" d="M76.433,156.447c0,0,22.761-41.855,38.631-33.209
		c4.65,2.533,10.6-2.154,6.272-5.529c-17.073-13.31-44.91,38.779-44.91,38.779L76.433,156.447z"/>
	<path fill-rule="evenodd" clip-rule="evenodd" fill="#C51C1D" d="M76.829,156.447c0,0-22.761-41.855-38.631-33.209
		c-4.65,2.533-10.6-2.154-6.272-5.529c17.073-13.31,44.91,38.779,44.91,38.779L76.829,156.447z"/>
	<path fill-rule="evenodd" clip-rule="evenodd" fill="#C51C1D" d="M76.686,154.605c0,0,12.739-10.957,16.892-6.121
		c1.217,1.418,3.765,0.615,2.759-1.039c-3.966-6.525-19.658,7.172-19.658,7.172L76.686,154.605z"/>
	<path fill-rule="evenodd" clip-rule="evenodd" fill="#C51C1D" d="M76.67,154.605c0,0-12.739-10.957-16.892-6.121
		c-1.217,1.418-3.765,0.615-2.759-1.039c3.966-6.525,19.658,7.172,19.658,7.172L76.67,154.605z"/>
	<path fill-rule="evenodd" clip-rule="evenodd" fill="#C51C1D" d="M77.04,52.498c0,0,16.711,17.057,23.174,10.711
		c1.896-1.858,5.406-0.415,3.783,1.805C97.592,73.772,77.03,52.479,77.03,52.479L77.04,52.498z"/>
	<path fill-rule="evenodd" clip-rule="evenodd" fill="#C51C1D" d="M77.175,52.498c0,0-16.711,17.057-23.174,10.711
		c-1.896-1.858-5.406-0.415-3.783,1.805c6.405,8.758,26.967-12.535,26.967-12.535L77.175,52.498z"/>
	<path fill-rule="evenodd" clip-rule="evenodd" fill="#C51C1D" d="M75.266,53.873c0,0-9.263,7.966-12.281,4.451
		c-0.886-1.031-2.737-0.448-2.006,0.755c2.884,4.744,14.293-5.215,14.293-5.215L75.266,53.873z"/>
	<path fill-rule="evenodd" clip-rule="evenodd" fill="#C51C1D" d="M78.818,53.873c0,0,9.263,7.966,12.281,4.451
		c0.886-1.031,2.737-0.448,2.006,0.755c-2.884,4.744-14.293-5.215-14.293-5.215L78.818,53.873z"/>
	<path fill-rule="evenodd" clip-rule="evenodd" fill="#C51C1D" d="M18.048,40.875c0,0,1.666-4.902,5.048-2.013
		c0,0,4.1,3.707-2.038,8.466c0,0-2.408,1.866-3.05,4.876h-0.099c-0.641-3.01-3.049-4.876-3.049-4.876
		c-6.139-4.759-2.039-8.466-2.039-8.466c3.382-2.89,5.047,2.013,5.047,2.013"/>
	<path fill-rule="evenodd" clip-rule="evenodd" fill="#C51C1D" d="M77.076,84.77c0,0,8.423-24.783,25.52-10.175
		c0,0,20.725,18.739-10.303,42.797c0,0-12.176,9.434-15.419,24.65h-0.498c-3.239-15.217-15.413-24.65-15.413-24.65
		C29.929,93.334,50.654,74.595,50.654,74.595C67.751,59.987,76.168,84.77,76.168,84.77"/>
	<path fill-rule="evenodd" clip-rule="evenodd" fill="#C51C1D" d="M135.43,174.613c0,0-1.666,4.902-5.048,2.014
		c0,0-4.1-3.707,2.039-8.467c0,0,2.408-1.865,3.049-4.875h0.099c0.642,3.01,3.05,4.875,3.05,4.875
		c6.138,4.76,2.038,8.467,2.038,8.467c-3.382,2.889-5.047-2.014-5.047-2.014"/>
</g>
</svg>
