<?xml version="1.0" encoding="utf-8"?>
<!-- Generator: Adobe Illustrator 15.1.0, SVG Export Plug-In . SVG Version: 6.00 Build 0)  -->
<!DOCTYPE svg PUBLIC "-//W3C//DTD SVG 1.1//EN" "http://www.w3.org/Graphics/SVG/1.1/DTD/svg11.dtd">
<svg version="1.1" id="Laag_1" xmlns="http://www.w3.org/2000/svg" xmlns:xlink="http://www.w3.org/1999/xlink" x="0px" y="0px"
	 width="152.06px" height="215.64px" viewBox="0 0 152.06 215.64" enable-background="new 0 0 152.06 215.64" xml:space="preserve">
<g>
	<g>
		<polygon fill-rule="evenodd" clip-rule="evenodd" fill="#FFFFFF" points="5.758,-0.001 146.158,-0.001 148.461,0.575 
			150.334,2.375 151.629,4.968 152.062,8.279 152.062,207.434 151.629,210.602 150.334,213.266 148.461,214.992 146.158,215.641 
			5.758,215.641 3.453,214.992 1.654,213.266 0.357,210.602 -0.002,207.434 -0.002,8.279 0.357,4.968 1.654,2.375 3.453,0.575 		"/>
	</g>
	<g>
		<g>
			<path fill="#BC181D" d="M10.759,32.479v-0.597c1.397-0.021,2.698-0.347,3.902-0.976s2.367-1.728,3.491-3.298
				c1.124-1.569,1.905-3.295,2.347-5.177c-1.688,1.086-3.215,1.629-4.58,1.629c-1.537,0-2.854-0.594-3.951-1.781
				c-1.096-1.188-1.645-2.766-1.645-4.733c0-1.913,0.549-3.617,1.645-5.112c1.322-1.816,3.049-2.725,5.177-2.725
				c1.796,0,3.333,0.741,4.612,2.225c1.569,1.839,2.354,4.107,2.354,6.806c0,2.43-0.597,4.695-1.79,6.797
				c-1.193,2.103-2.854,3.847-4.982,5.233c-1.732,1.14-3.619,1.709-5.661,1.709H10.759z M20.757,21.239
				c0.193-1.397,0.291-2.516,0.291-3.354c0-1.043-0.178-2.169-0.533-3.379c-0.354-1.209-0.857-2.137-1.508-2.781
				c-0.65-0.646-1.389-0.968-2.217-0.968c-0.957,0-1.796,0.43-2.516,1.29c-0.721,0.86-1.08,2.14-1.08,3.838
				c0,2.269,0.478,4.042,1.435,5.321c0.698,0.925,1.559,1.388,2.58,1.388c0.495,0,1.081-0.118,1.758-0.355
				C19.644,22.003,20.241,21.67,20.757,21.239z"/>
		</g>
		<g>
			<path fill="#BC181D" d="M141.301,183.16v0.596c-1.397,0.021-2.698,0.348-3.902,0.977s-2.368,1.729-3.491,3.297
				c-1.123,1.57-1.906,3.295-2.347,5.178c1.688-1.086,3.215-1.629,4.58-1.629c1.538,0,2.854,0.594,3.95,1.781
				c1.098,1.188,1.646,2.766,1.646,4.734c0,1.912-0.548,3.617-1.646,5.111c-1.322,1.816-3.047,2.725-5.176,2.725
				c-1.795,0-3.332-0.742-4.612-2.225c-1.569-1.838-2.354-4.107-2.354-6.805c0-2.43,0.597-4.697,1.79-6.799s2.854-3.846,4.983-5.232
				c1.73-1.139,3.617-1.709,5.66-1.709H141.301z M131.303,194.4c-0.194,1.396-0.29,2.516-0.29,3.354c0,1.043,0.178,2.17,0.531,3.379
				c0.355,1.209,0.857,2.137,1.508,2.781c0.651,0.645,1.391,0.969,2.218,0.969c0.957,0,1.796-0.432,2.516-1.291
				c0.721-0.859,1.081-2.139,1.081-3.838c0-2.268-0.479-4.043-1.436-5.322c-0.699-0.924-1.559-1.387-2.58-1.387
				c-0.494,0-1.08,0.119-1.758,0.355S131.819,193.971,131.303,194.4z"/>
		</g>
	</g>
	<path fill-rule="evenodd" clip-rule="evenodd" fill="#C51C1D" d="M104.463,35.798c0,0,4.084-12.015,12.373-4.934
		c0,0,10.049,9.088-4.998,20.752c0,0-5.902,4.576-7.475,11.953h-0.24c-1.572-7.377-7.475-11.953-7.475-11.953
		C81.602,39.952,91.65,30.864,91.65,30.864c8.289-7.081,12.373,4.934,12.373,4.934"/>
	<path fill-rule="evenodd" clip-rule="evenodd" fill="#C51C1D" d="M104.213,118.217c0,0,4.084-12.015,12.373-4.934
		c0,0,10.049,9.087-4.997,20.751c0,0-5.903,4.577-7.475,11.955h-0.241c-1.572-7.378-7.475-11.955-7.475-11.955
		C81.352,122.37,91.4,113.283,91.4,113.283c8.29-7.081,12.373,4.934,12.373,4.934"/>
	<path fill-rule="evenodd" clip-rule="evenodd" fill="#C51C1D" d="M77.214,97.588c0,0,4.084-12.015,12.373-4.934
		c0,0,10.049,9.087-4.997,20.751c0,0-5.903,4.577-7.475,11.955h-0.241c-1.572-7.378-7.475-11.955-7.475-11.955
		c-15.047-11.664-4.998-20.751-4.998-20.751c8.29-7.081,12.373,4.934,12.373,4.934"/>
	<path fill-rule="evenodd" clip-rule="evenodd" fill="#C51C1D" d="M104.148,76.921c0,0,4.084-12.015,12.373-4.934
		c0,0,10.049,9.087-4.998,20.751c0,0-5.902,4.577-7.475,11.955h-0.24c-1.572-7.378-7.475-11.955-7.475-11.955
		c-15.047-11.664-4.998-20.751-4.998-20.751c8.289-7.081,12.373,4.934,12.373,4.934"/>
	<path fill-rule="evenodd" clip-rule="evenodd" fill="#C51C1D" d="M104.463,158.237c0,0,4.084-12.016,12.373-4.934
		c0,0,10.049,9.088-4.998,20.752c0,0-5.902,4.576-7.475,11.953h-0.24c-1.572-7.377-7.475-11.953-7.475-11.953
		c-15.047-11.664-4.998-20.752-4.998-20.752c8.289-7.082,12.373,4.934,12.373,4.934"/>
	<path fill-rule="evenodd" clip-rule="evenodd" fill="#C51C1D" d="M49.463,35.798c0,0,4.084-12.015,12.373-4.934
		c0,0,10.049,9.088-4.998,20.752c0,0-5.902,4.576-7.475,11.953h-0.24c-1.572-7.377-7.475-11.953-7.475-11.953
		C26.602,39.952,36.65,30.864,36.65,30.864c8.289-7.081,12.373,4.934,12.373,4.934"/>
	<path fill-rule="evenodd" clip-rule="evenodd" fill="#C51C1D" d="M49.213,118.217c0,0,4.084-12.015,12.373-4.934
		c0,0,10.049,9.087-4.997,20.751c0,0-5.903,4.577-7.475,11.955h-0.241c-1.572-7.378-7.475-11.955-7.475-11.955
		C26.352,122.37,36.4,113.283,36.4,113.283c8.29-7.081,12.373,4.934,12.373,4.934"/>
	<path fill-rule="evenodd" clip-rule="evenodd" fill="#C51C1D" d="M49.148,76.921c0,0,4.084-12.015,12.373-4.934
		c0,0,10.049,9.087-4.998,20.751c0,0-5.902,4.577-7.475,11.955h-0.24c-1.572-7.378-7.475-11.955-7.475-11.955
		c-15.047-11.664-4.998-20.751-4.998-20.751c8.289-7.081,12.373,4.934,12.373,4.934"/>
	<path fill-rule="evenodd" clip-rule="evenodd" fill="#C51C1D" d="M49.463,158.237c0,0,4.084-12.016,12.373-4.934
		c0,0,10.049,9.088-4.998,20.752c0,0-5.902,4.576-7.475,11.953h-0.24c-1.572-7.377-7.475-11.953-7.475-11.953
		c-15.047-11.664-4.998-20.752-4.998-20.752c8.289-7.082,12.373,4.934,12.373,4.934"/>
	<g>
		<path fill-rule="evenodd" clip-rule="evenodd" fill="#C51C1D" d="M17.061,41.146c0,0,1.666-4.902,5.048-2.013
			c0,0,4.1,3.707-2.038,8.466c0,0-2.408,1.866-3.05,4.876h-0.099c-0.641-3.01-3.049-4.876-3.049-4.876
			c-6.139-4.759-2.039-8.466-2.039-8.466c3.382-2.89,5.047,2.013,5.047,2.013"/>
		<path fill-rule="evenodd" clip-rule="evenodd" fill="#C51C1D" d="M134.442,174.884c0,0-1.666,4.902-5.048,2.014
			c0,0-4.1-3.707,2.039-8.467c0,0,2.408-1.865,3.049-4.875h0.099c0.642,3.01,3.05,4.875,3.05,4.875
			c6.138,4.76,2.038,8.467,2.038,8.467c-3.382,2.889-5.047-2.014-5.047-2.014"/>
	</g>
</g>
</svg>
