<?xml version="1.0" encoding="utf-8"?>
<!-- Generator: Adobe Illustrator 15.1.0, SVG Export Plug-In . SVG Version: 6.00 Build 0)  -->
<!DOCTYPE svg PUBLIC "-//W3C//DTD SVG 1.1//EN" "http://www.w3.org/Graphics/SVG/1.1/DTD/svg11.dtd">
<svg version="1.1" id="Laag_1" xmlns="http://www.w3.org/2000/svg" xmlns:xlink="http://www.w3.org/1999/xlink" x="0px" y="0px"
	 width="152.06px" height="215.64px" viewBox="0 0 152.06 215.64" enable-background="new 0 0 152.06 215.64" xml:space="preserve">
<g>
	<g>
		<polygon fill-rule="evenodd" clip-rule="evenodd" fill="#FFFFFF" points="5.758,-0.001 146.158,-0.001 148.463,0.575 
			150.334,2.376 151.631,4.968 152.063,8.28 152.063,207.433 151.631,210.601 150.334,213.265 148.463,214.992 146.158,215.641 
			5.758,215.641 3.455,214.992 1.654,213.265 0.358,210.601 -0.002,207.433 -0.002,8.28 0.358,4.968 1.654,2.376 3.455,0.575 		"/>
	</g>
	<g>
		<g>
			<path fill="#BC181D" d="M12.339,10.161h11.724v0.613L16.774,32.48h-1.806l6.53-19.69h-6.015c-1.215,0-2.08,0.146-2.597,0.436
				c-0.902,0.494-1.628,1.258-2.177,2.29l-0.468-0.178L12.339,10.161z"/>
		</g>
		<g>
			<path fill="#BC181D" d="M139.721,205.479h-11.725v-0.613l7.289-21.705h1.807l-6.531,19.689h6.016c1.215,0,2.08-0.145,2.596-0.436
				c0.902-0.494,1.629-1.258,2.178-2.289l0.467,0.178L139.721,205.479z"/>
		</g>
	</g>
	<path fill-rule="evenodd" clip-rule="evenodd" fill="#C51C1D" d="M48.898,34.798c0,0,4.083-12.015,12.373-4.934
		c0,0,10.049,9.087-4.998,20.751c0,0-5.902,4.577-7.475,11.954h-0.241c-1.571-7.377-7.475-11.954-7.475-11.954
		c-15.046-11.664-4.998-20.751-4.998-20.751c8.29-7.082,12.374,4.934,12.374,4.934"/>
	<path fill-rule="evenodd" clip-rule="evenodd" fill="#C51C1D" d="M47.649,156.989c0,0,4.083-12.016,12.373-4.934
		c0,0,10.049,9.087-4.997,20.751c0,0-5.903,4.577-7.475,11.954h-0.242c-1.571-7.377-7.475-11.954-7.475-11.954
		c-15.046-11.664-4.997-20.751-4.997-20.751c8.29-7.082,12.373,4.934,12.373,4.934"/>
	<path fill-rule="evenodd" clip-rule="evenodd" fill="#C51C1D" d="M103.564,34.798c0,0,4.084-12.015,12.373-4.934
		c0,0,10.049,9.087-4.998,20.751c0,0-5.902,4.577-7.475,11.954h-0.24c-1.572-7.377-7.475-11.954-7.475-11.954
		c-15.047-11.664-4.998-20.751-4.998-20.751c8.289-7.082,12.373,4.934,12.373,4.934"/>
	<path fill-rule="evenodd" clip-rule="evenodd" fill="#C51C1D" d="M47.314,96.217c0,0,4.084-12.015,12.373-4.934
		c0,0,10.049,9.087-4.997,20.751c0,0-5.903,4.577-7.475,11.955h-0.241c-1.572-7.378-7.475-11.955-7.475-11.955
		c-15.046-11.664-4.998-20.751-4.998-20.751c8.29-7.081,12.373,4.934,12.373,4.934"/>
	<path fill-rule="evenodd" clip-rule="evenodd" fill="#C51C1D" d="M102.314,96.217c0,0,4.084-12.015,12.373-4.934
		c0,0,10.049,9.087-4.998,20.751c0,0-5.902,4.577-7.475,11.955h-0.24c-1.572-7.378-7.475-11.955-7.475-11.955
		c-15.047-11.664-4.998-20.751-4.998-20.751c8.289-7.081,12.373,4.934,12.373,4.934"/>
	<path fill-rule="evenodd" clip-rule="evenodd" fill="#C51C1D" d="M75.25,66.921c0,0,4.084-12.015,12.374-4.934
		c0,0,10.049,9.087-4.998,20.751c0,0-5.903,4.577-7.475,11.955h-0.24c-1.572-7.378-7.475-11.955-7.475-11.955
		c-15.047-11.664-4.998-20.751-4.998-20.751c8.289-7.081,12.373,4.934,12.373,4.934"/>
	<path fill-rule="evenodd" clip-rule="evenodd" fill="#C51C1D" d="M103.564,158.237c0,0,4.084-12.016,12.373-4.934
		c0,0,10.049,9.088-4.998,20.752c0,0-5.902,4.576-7.475,11.953h-0.24c-1.572-7.377-7.475-11.953-7.475-11.953
		c-15.047-11.664-4.998-20.752-4.998-20.752c8.289-7.082,12.373,4.934,12.373,4.934"/>
	<g>
		<path fill-rule="evenodd" clip-rule="evenodd" fill="#C51C1D" d="M16.162,41.146c0,0,1.666-4.902,5.047-2.013
			c0,0,4.1,3.707-2.039,8.465c0,0-2.408,1.867-3.049,4.876h-0.098c-0.642-3.01-3.049-4.876-3.049-4.876
			c-6.138-4.758-2.039-8.465-2.039-8.465c3.381-2.889,5.047,2.013,5.047,2.013"/>
		<path fill-rule="evenodd" clip-rule="evenodd" fill="#C51C1D" d="M133.543,174.884c0,0-1.666,4.902-5.047,2.014
			c0,0-4.1-3.707,2.039-8.467c0,0,2.408-1.865,3.049-4.875h0.098c0.643,3.01,3.051,4.875,3.051,4.875
			c6.137,4.76,2.037,8.467,2.037,8.467c-3.381,2.889-5.047-2.014-5.047-2.014"/>
	</g>
</g>
</svg>
