<?xml version="1.0" encoding="utf-8"?>
<!-- Generator: Adobe Illustrator 15.1.0, SVG Export Plug-In . SVG Version: 6.00 Build 0)  -->
<!DOCTYPE svg PUBLIC "-//W3C//DTD SVG 1.1//EN" "http://www.w3.org/Graphics/SVG/1.1/DTD/svg11.dtd">
<svg version="1.1" id="Laag_1" xmlns="http://www.w3.org/2000/svg" xmlns:xlink="http://www.w3.org/1999/xlink" x="0px" y="0px"
	 width="152.06px" height="215.64px" viewBox="0 0 152.06 215.64" enable-background="new 0 0 152.06 215.64" xml:space="preserve">
<g>
	<polygon fill-rule="evenodd" clip-rule="evenodd" fill="#FFFFFF" points="5.758,-0.001 146.158,-0.001 148.461,0.575 
		150.334,2.375 151.629,4.968 152.063,8.279 152.063,207.433 151.629,210.601 150.334,213.265 148.461,214.992 146.158,215.641 
		5.758,215.641 3.453,214.992 1.654,213.265 0.357,210.601 -0.002,207.433 -0.002,8.279 0.357,4.968 1.654,2.375 3.453,0.575 	"/>
	<g>
		<path fill="#BC181D" d="M10.807,15.614c0.616-1.456,1.395-2.579,2.335-3.37c0.939-0.791,2.11-1.188,3.513-1.188
			c1.731,0,3.06,0.563,3.983,1.689c0.701,0.839,1.051,1.736,1.051,2.692c0,1.572-0.987,3.197-2.963,4.876
			c1.328,0.521,2.332,1.264,3.012,2.23s1.02,2.104,1.02,3.409c0,1.87-0.596,3.49-1.785,4.86c-1.551,1.784-3.797,2.677-6.739,2.677
			c-1.456,0-2.446-0.181-2.972-0.542c-0.525-0.36-0.789-0.749-0.789-1.163c0-0.308,0.125-0.579,0.375-0.813
			c0.249-0.233,0.549-0.351,0.9-0.351c0.266,0,0.536,0.043,0.813,0.128c0.18,0.053,0.59,0.246,1.227,0.581
			c0.638,0.335,1.078,0.534,1.322,0.598c0.394,0.117,0.813,0.176,1.259,0.176c1.083,0,2.026-0.42,2.828-1.259
			c0.802-0.84,1.203-1.833,1.203-2.98c0-0.839-0.187-1.656-0.558-2.453c-0.275-0.595-0.578-1.046-0.908-1.354
			c-0.457-0.425-1.083-0.81-1.88-1.155c-0.796-0.345-1.609-0.518-2.438-0.518h-0.51v-0.479c0.84-0.105,1.682-0.408,2.525-0.908
			c0.845-0.499,1.459-1.1,1.841-1.8c0.382-0.701,0.573-1.472,0.573-2.311c0-1.094-0.342-1.979-1.027-2.653
			c-0.686-0.674-1.537-1.012-2.558-1.012c-1.646,0-3.021,0.882-4.126,2.646L10.807,15.614z"/>
		<path fill="#BC181D" d="M140.354,202.024c-0.615,1.456-1.395,2.579-2.334,3.37s-2.111,1.188-3.514,1.188
			c-1.73,0-3.059-0.563-3.982-1.689c-0.701-0.839-1.053-1.736-1.053-2.692c0-1.572,0.988-3.197,2.965-4.876
			c-1.328-0.521-2.332-1.264-3.012-2.23s-1.02-2.104-1.02-3.409c0-1.87,0.594-3.49,1.783-4.86c1.551-1.784,3.799-2.677,6.74-2.677
			c1.455,0,2.445,0.181,2.971,0.542c0.527,0.36,0.791,0.749,0.791,1.163c0,0.308-0.127,0.579-0.375,0.813
			c-0.25,0.233-0.551,0.351-0.9,0.351c-0.266,0-0.537-0.043-0.813-0.128c-0.182-0.053-0.59-0.246-1.227-0.581
			c-0.639-0.335-1.078-0.534-1.324-0.598c-0.393-0.117-0.813-0.176-1.258-0.176c-1.084,0-2.025,0.42-2.828,1.259
			c-0.803,0.84-1.203,1.833-1.203,2.98c0,0.839,0.186,1.656,0.557,2.453c0.277,0.595,0.58,1.046,0.908,1.354
			c0.459,0.425,1.084,0.81,1.881,1.155c0.797,0.345,1.609,0.518,2.438,0.518h0.51v0.479c-0.838,0.105-1.68,0.408-2.525,0.908
			c-0.844,0.499-1.457,1.1-1.84,1.8c-0.383,0.701-0.572,1.472-0.572,2.311c0,1.094,0.342,1.979,1.027,2.653
			c0.686,0.674,1.537,1.012,2.557,1.012c1.646,0,3.021-0.882,4.127-2.646L140.354,202.024z"/>
	</g>
	<path fill-rule="evenodd" clip-rule="evenodd" fill="#C51C1D" d="M76.25,36.11c0,0,4.084-12.015,12.374-4.934
		c0,0,10.049,9.087-4.998,20.751c0,0-5.902,4.577-7.475,11.955h-0.24c-1.572-7.377-7.475-11.955-7.475-11.955
		c-15.047-11.664-4.998-20.751-4.998-20.751c8.289-7.082,12.373,4.934,12.373,4.934"/>
	<path fill-rule="evenodd" clip-rule="evenodd" fill="#C51C1D" d="M76.25,97.11c0,0,4.084-12.016,12.374-4.934
		c0,0,10.049,9.087-4.998,20.751c0,0-5.902,4.577-7.475,11.954h-0.24c-1.572-7.377-7.475-11.954-7.475-11.954
		c-15.047-11.664-4.998-20.751-4.998-20.751c8.289-7.082,12.373,4.934,12.373,4.934"/>
	<path fill-rule="evenodd" clip-rule="evenodd" fill="#C51C1D" d="M16.583,42.146c0,0,1.666-4.902,5.047-2.013
		c0,0,4.1,3.707-2.039,8.465c0,0-2.408,1.867-3.049,4.876h-0.098c-0.642-3.01-3.049-4.876-3.049-4.876
		c-6.138-4.758-2.039-8.465-2.039-8.465c3.381-2.889,5.047,2.013,5.047,2.013"/>
	<path fill-rule="evenodd" clip-rule="evenodd" fill="#C51C1D" d="M76.25,160.11c0,0,4.084-12.016,12.374-4.934
		c0,0,10.049,9.087-4.998,20.751c0,0-5.902,4.577-7.475,11.954h-0.24c-1.572-7.377-7.475-11.954-7.475-11.954
		c-15.047-11.664-4.998-20.751-4.998-20.751c8.289-7.082,12.373,4.934,12.373,4.934"/>
	<path fill-rule="evenodd" clip-rule="evenodd" fill="#C51C1D" d="M134.297,175.884c0,0-1.666,4.902-5.047,2.014
		c0,0-4.1-3.707,2.039-8.467c0,0,2.408-1.865,3.049-4.875h0.098c0.643,3.01,3.051,4.875,3.051,4.875
		c6.137,4.76,2.037,8.467,2.037,8.467c-3.381,2.889-5.047-2.014-5.047-2.014"/>
</g>
</svg>
