<?xml version="1.0" encoding="utf-8"?>
<!-- Generator: Adobe Illustrator 15.1.0, SVG Export Plug-In . SVG Version: 6.00 Build 0)  -->
<!DOCTYPE svg PUBLIC "-//W3C//DTD SVG 1.1//EN" "http://www.w3.org/Graphics/SVG/1.1/DTD/svg11.dtd">
<svg version="1.1" id="Laag_1" xmlns="http://www.w3.org/2000/svg" xmlns:xlink="http://www.w3.org/1999/xlink" x="0px" y="0px"
	 width="152.06px" height="215.64px" viewBox="0 0 152.06 215.64" enable-background="new 0 0 152.06 215.64" xml:space="preserve">
<g>
	<g>
		<polygon fill-rule="evenodd" clip-rule="evenodd" fill="#FFFFFF" points="5.759,-0.001 146.158,-0.001 148.462,0.575 
			150.334,2.375 151.63,4.968 152.062,8.279 152.062,207.434 151.63,210.602 150.334,213.266 148.462,214.992 146.158,215.641 
			5.759,215.641 3.454,214.992 1.654,213.266 0.358,210.602 -0.002,207.434 -0.002,8.279 0.358,4.968 1.654,2.375 3.454,0.575 		"/>
	</g>
	<g>
		<g>
			<path fill="#BC181D" d="M23.354,10.16l-1.258,2.742h-6.579l-1.436,2.935c2.849,0.419,5.106,1.479,6.772,3.177
				c1.43,1.462,2.146,3.183,2.146,5.16c0,1.15-0.234,2.215-0.702,3.193s-1.056,1.812-1.766,2.499c-0.709,0.688-1.5,1.242-2.37,1.661
				c-1.236,0.592-2.505,0.888-3.806,0.888c-1.313,0-2.266-0.224-2.862-0.67c-0.597-0.445-0.896-0.938-0.896-1.476
				c0-0.301,0.123-0.566,0.371-0.798c0.247-0.231,0.559-0.347,0.936-0.347c0.279,0,0.523,0.043,0.733,0.129s0.567,0.307,1.072,0.661
				c0.807,0.56,1.623,0.839,2.451,0.839c1.258,0,2.362-0.476,3.314-1.428c0.951-0.951,1.427-2.109,1.427-3.475
				c0-1.322-0.425-2.557-1.274-3.701c-0.849-1.146-2.021-2.029-3.515-2.652c-1.172-0.484-2.769-0.764-4.79-0.839l4.193-8.499H23.354
				z"/>
		</g>
		<g>
			<path fill="#BC181D" d="M128.706,205.48l1.258-2.742h6.579l1.436-2.936c-2.849-0.418-5.106-1.479-6.772-3.176
				c-1.43-1.463-2.146-3.184-2.146-5.16c0-1.15,0.234-2.215,0.702-3.193s1.056-1.813,1.766-2.5c0.709-0.688,1.5-1.242,2.37-1.66
				c1.236-0.592,2.505-0.889,3.806-0.889c1.313,0,2.266,0.225,2.862,0.67s0.896,0.938,0.896,1.477c0,0.301-0.123,0.566-0.371,0.797
				c-0.247,0.232-0.559,0.348-0.936,0.348c-0.279,0-0.523-0.043-0.733-0.129s-0.567-0.307-1.072-0.662
				c-0.807-0.559-1.623-0.838-2.451-0.838c-1.258,0-2.362,0.475-3.314,1.428c-0.951,0.951-1.427,2.109-1.427,3.475
				c0,1.322,0.425,2.557,1.274,3.701c0.849,1.145,2.021,2.029,3.515,2.652c1.172,0.484,2.769,0.764,4.79,0.838l-4.193,8.5H128.706z"
				/>
		</g>
	</g>
	<g>
		<path fill-rule="evenodd" clip-rule="evenodd" fill="#C51C1D" d="M48.584,35.11c0,0,4.083-12.015,12.373-4.934
			c0,0,10.049,9.087-4.997,20.751c0,0-5.903,4.577-7.475,11.955h-0.242c-1.571-7.377-7.475-11.955-7.475-11.955
			c-15.046-11.664-4.997-20.751-4.997-20.751c8.29-7.082,12.373,4.934,12.373,4.934"/>
		<g>
			<path fill-rule="evenodd" clip-rule="evenodd" fill="#C51C1D" d="M17.263,41.146c0,0,1.666-4.902,5.047-2.013
				c0,0,4.1,3.707-2.039,8.465c0,0-2.408,1.867-3.049,4.876h-0.098c-0.642-3.01-3.049-4.876-3.049-4.876
				c-6.138-4.758-2.039-8.465-2.039-8.465c3.381-2.889,5.047,2.013,5.047,2.013"/>
			<path fill-rule="evenodd" clip-rule="evenodd" fill="#C51C1D" d="M48.584,158.55c0,0,4.083-12.016,12.373-4.934
				c0,0,10.049,9.087-4.997,20.751c0,0-5.903,4.577-7.475,11.954h-0.242c-1.571-7.377-7.475-11.954-7.475-11.954
				c-15.046-11.664-4.997-20.751-4.997-20.751c8.29-7.082,12.373,4.934,12.373,4.934"/>
			<path fill-rule="evenodd" clip-rule="evenodd" fill="#C51C1D" d="M103.251,35.11c0,0,4.083-12.015,12.373-4.934
				c0,0,10.049,9.087-4.998,20.751c0,0-5.902,4.577-7.475,11.955h-0.241c-1.571-7.377-7.475-11.955-7.475-11.955
				c-15.046-11.664-4.997-20.751-4.997-20.751c8.289-7.082,12.373,4.934,12.373,4.934"/>
			<path fill-rule="evenodd" clip-rule="evenodd" fill="#C51C1D" d="M76.249,98.777c0,0,4.084-12.015,12.373-4.934
				c0,0,10.049,9.087-4.997,20.751c0,0-5.903,4.577-7.475,11.955h-0.241c-1.572-7.378-7.475-11.955-7.475-11.955
				c-15.047-11.664-4.998-20.751-4.998-20.751c8.29-7.081,12.373,4.934,12.373,4.934"/>
			<path fill-rule="evenodd" clip-rule="evenodd" fill="#C51C1D" d="M103.251,158.55c0,0,4.083-12.016,12.373-4.934
				c0,0,10.049,9.087-4.998,20.751c0,0-5.902,4.577-7.475,11.954h-0.241c-1.571-7.377-7.475-11.954-7.475-11.954
				c-15.046-11.664-4.997-20.751-4.997-20.751c8.289-7.082,12.373,4.934,12.373,4.934"/>
			<path fill-rule="evenodd" clip-rule="evenodd" fill="#C51C1D" d="M134.645,174.884c0,0-1.666,4.902-5.048,2.014
				c0,0-4.1-3.707,2.039-8.467c0,0,2.408-1.865,3.049-4.875h0.099c0.642,3.01,3.05,4.875,3.05,4.875
				c6.138,4.76,2.038,8.467,2.038,8.467c-3.382,2.889-5.047-2.014-5.047-2.014"/>
		</g>
	</g>
</g>
</svg>
