<?xml version="1.0" encoding="utf-8"?>
<!-- Generator: Adobe Illustrator 15.1.0, SVG Export Plug-In . SVG Version: 6.00 Build 0)  -->
<!DOCTYPE svg PUBLIC "-//W3C//DTD SVG 1.1//EN" "http://www.w3.org/Graphics/SVG/1.1/DTD/svg11.dtd">
<svg version="1.1" id="Laag_1" xmlns="http://www.w3.org/2000/svg" xmlns:xlink="http://www.w3.org/1999/xlink" x="0px" y="0px"
	 width="152.06px" height="215.64px" viewBox="0 0 152.06 215.64" enable-background="new 0 0 152.06 215.64" xml:space="preserve">
<g>
	<g>
		<polygon fill-rule="evenodd" clip-rule="evenodd" fill="#FFFFFF" points="5.757,0 146.158,0 148.461,0.576 150.334,2.375 
			151.629,4.967 152.063,8.28 152.063,207.432 151.629,210.6 150.334,213.264 148.461,214.992 146.158,215.641 5.757,215.641 
			3.454,214.992 1.654,213.264 0.357,210.6 -0.002,207.432 -0.002,8.28 0.357,4.967 1.654,2.375 3.454,0.576 		"/>
	</g>
	<g>
		<path fill="#BC181D" d="M23.867,25.378v2.263h-2.898v5.704h-2.63v-5.704H9.193v-2.039l10.021-14.309h1.754v14.085H23.867z
			 M18.338,25.378V14.656l-7.585,10.723H18.338z"/>
		<path fill="#BC181D" d="M128.193,190.262V188h2.898v-5.705h2.631V188h9.145v2.039l-10.021,14.307h-1.754v-14.084H128.193z
			 M133.723,190.262v10.723l7.584-10.723H133.723z"/>
	</g>
	<path fill-rule="evenodd" clip-rule="evenodd" fill="#C51C1D" d="M49.135,35.111c0,0,4.083-12.015,12.373-4.934
		c0,0,10.049,9.087-4.997,20.751c0,0-5.903,4.577-7.475,11.955h-0.242c-1.571-7.377-7.475-11.955-7.475-11.955
		c-15.046-11.664-4.997-20.751-4.997-20.751c8.29-7.082,12.373,4.934,12.373,4.934"/>
	<path fill-rule="evenodd" clip-rule="evenodd" fill="#C51C1D" d="M17.814,41.146c0,0,1.666-4.902,5.047-2.013
		c0,0,4.1,3.707-2.039,8.465c0,0-2.408,1.867-3.049,4.876h-0.098c-0.642-3.01-3.049-4.876-3.049-4.876
		c-6.138-4.758-2.039-8.465-2.039-8.465c3.381-2.889,5.047,2.013,5.047,2.013"/>
	<path fill-rule="evenodd" clip-rule="evenodd" fill="#C51C1D" d="M49.135,158.551c0,0,4.083-12.016,12.373-4.934
		c0,0,10.049,9.086-4.997,20.75c0,0-5.903,4.578-7.475,11.955h-0.242c-1.571-7.377-7.475-11.955-7.475-11.955
		c-15.046-11.664-4.997-20.75-4.997-20.75c8.29-7.082,12.373,4.934,12.373,4.934"/>
	<path fill-rule="evenodd" clip-rule="evenodd" fill="#C51C1D" d="M103.803,35.111c0,0,4.082-12.015,12.373-4.934
		c0,0,10.049,9.087-4.998,20.751c0,0-5.902,4.577-7.475,11.955h-0.242c-1.57-7.377-7.475-11.955-7.475-11.955
		C80.941,39.264,90.99,30.177,90.99,30.177c8.289-7.082,12.373,4.934,12.373,4.934"/>
	<path fill-rule="evenodd" clip-rule="evenodd" fill="#C51C1D" d="M103.803,158.551c0,0,4.082-12.016,12.373-4.934
		c0,0,10.049,9.086-4.998,20.75c0,0-5.902,4.578-7.475,11.955h-0.242c-1.57-7.377-7.475-11.955-7.475-11.955
		c-15.045-11.664-4.996-20.75-4.996-20.75c8.289-7.082,12.373,4.934,12.373,4.934"/>
	<path fill-rule="evenodd" clip-rule="evenodd" fill="#C51C1D" d="M135.195,174.885c0,0-1.666,4.902-5.047,2.014
		c0,0-4.1-3.707,2.039-8.467c0,0,2.408-1.865,3.049-4.875h0.098c0.643,3.01,3.051,4.875,3.051,4.875
		c6.137,4.76,2.037,8.467,2.037,8.467c-3.381,2.889-5.047-2.014-5.047-2.014"/>
</g>
</svg>
