<?xml version="1.0" encoding="utf-8"?>
<!-- Generator: Adobe Illustrator 15.1.0, SVG Export Plug-In . SVG Version: 6.00 Build 0)  -->
<!DOCTYPE svg PUBLIC "-//W3C//DTD SVG 1.1//EN" "http://www.w3.org/Graphics/SVG/1.1/DTD/svg11.dtd">
<svg version="1.1" id="Laag_1" xmlns="http://www.w3.org/2000/svg" xmlns:xlink="http://www.w3.org/1999/xlink" x="0px" y="0px"
	 width="152.06px" height="215.64px" viewBox="0 0 152.06 215.64" enable-background="new 0 0 152.06 215.64" xml:space="preserve">
<g>
	<g>
		<polygon fill-rule="evenodd" clip-rule="evenodd" fill="#FFFFFF" points="5.759,-0.001 146.158,-0.001 148.462,0.575 
			150.334,2.375 151.63,4.968 152.062,8.279 152.062,207.432 151.63,210.6 150.334,213.264 148.462,214.992 146.158,215.641 
			5.759,215.641 3.454,214.992 1.654,213.264 0.358,210.6 -0.002,207.432 -0.002,8.279 0.358,4.968 1.654,2.375 3.454,0.575 		"/>
	</g>
	<g>
		<g>
			<path fill="#BC181D" d="M23.82,9.71v0.596c-1.419,0.141-2.578,0.423-3.476,0.847c-0.897,0.425-1.784,1.073-2.66,1.943
				c-0.877,0.871-1.603,1.842-2.178,2.911s-1.056,2.341-1.443,3.813c1.549-1.064,3.102-1.597,4.661-1.597
				c1.494,0,2.789,0.603,3.886,1.807s1.646,2.752,1.646,4.645c0,1.827-0.554,3.494-1.661,4.999
				c-1.333,1.827-3.097,2.741-5.289,2.741c-1.495,0-2.764-0.494-3.807-1.483c-2.042-1.925-3.063-4.419-3.063-7.482
				c0-1.957,0.393-3.816,1.177-5.58c0.785-1.763,1.906-3.327,3.362-4.692c1.457-1.365,2.852-2.284,4.186-2.758
				c1.332-0.473,2.574-0.709,3.725-0.709H23.82z M13.79,20.998c-0.194,1.451-0.291,2.623-0.291,3.516
				c0,1.031,0.191,2.152,0.573,3.362c0.381,1.209,0.948,2.169,1.701,2.878c0.548,0.506,1.215,0.758,1.999,0.758
				c0.936,0,1.771-0.44,2.508-1.322c0.736-0.881,1.104-2.139,1.104-3.773c0-1.838-0.365-3.429-1.097-4.773
				c-0.73-1.344-1.769-2.016-3.112-2.016c-0.408,0-0.847,0.086-1.313,0.258C15.395,20.058,14.703,20.428,13.79,20.998z"/>
		</g>
		<g>
			<path fill="#BC181D" d="M128.239,205.931v-0.596c1.419-0.141,2.577-0.423,3.475-0.848c0.898-0.424,1.785-1.072,2.661-1.943
				c0.876-0.87,1.602-1.841,2.177-2.91c0.575-1.07,1.057-2.342,1.443-3.814c-1.548,1.064-3.102,1.598-4.66,1.598
				c-1.494,0-2.79-0.604-3.887-1.807c-1.097-1.205-1.645-2.752-1.645-4.645c0-1.828,0.554-3.494,1.661-4.999
				c1.333-1.827,3.096-2.741,5.289-2.741c1.494,0,2.763,0.494,3.806,1.483c2.043,1.925,3.064,4.419,3.064,7.482
				c0,1.956-0.393,3.816-1.178,5.579c-0.784,1.764-1.905,3.328-3.362,4.693c-1.456,1.365-2.852,2.284-4.185,2.758
				c-1.333,0.473-2.574,0.709-3.726,0.709H128.239z M138.27,194.643c0.193-1.451,0.29-2.623,0.29-3.516
				c0-1.032-0.19-2.153-0.572-3.362s-0.949-2.169-1.701-2.879c-0.549-0.505-1.215-0.758-2-0.758c-0.936,0-1.771,0.441-2.508,1.322
				c-0.736,0.882-1.104,2.14-1.104,3.773c0,1.839,0.366,3.43,1.097,4.773c0.731,1.344,1.769,2.016,3.112,2.016
				c0.409,0,0.847-0.086,1.314-0.258S137.355,195.212,138.27,194.643z"/>
		</g>
	</g>
	<path fill-rule="evenodd" clip-rule="evenodd" fill="#C51C1D" d="M49.282,36.359c0,0,4.083-12.015,12.373-4.934
		c0,0,10.049,9.087-4.998,20.751c0,0-5.902,4.577-7.475,11.954h-0.241c-1.571-7.377-7.475-11.954-7.475-11.954
		C26.42,40.512,36.47,31.425,36.47,31.425c8.289-7.082,12.373,4.934,12.373,4.934"/>
	<path fill-rule="evenodd" clip-rule="evenodd" fill="#C51C1D" d="M16.712,41.146c0,0,1.666-4.902,5.047-2.013
		c0,0,4.1,3.707-2.039,8.465c0,0-2.408,1.867-3.049,4.876h-0.098c-0.642-3.01-3.049-4.876-3.049-4.876
		c-6.138-4.758-2.039-8.465-2.039-8.465c3.381-2.889,5.047,2.013,5.047,2.013"/>
	<path fill-rule="evenodd" clip-rule="evenodd" fill="#C51C1D" d="M48.033,158.55c0,0,4.083-12.016,12.373-4.934
		c0,0,10.049,9.087-4.997,20.751c0,0-5.903,4.577-7.475,11.954h-0.242c-1.571-7.377-7.475-11.954-7.475-11.954
		c-15.046-11.664-4.997-20.751-4.997-20.751c8.29-7.082,12.373,4.934,12.373,4.934"/>
	<path fill-rule="evenodd" clip-rule="evenodd" fill="#C51C1D" d="M103.948,36.359c0,0,4.084-12.015,12.373-4.934
		c0,0,10.049,9.087-4.998,20.751c0,0-5.902,4.577-7.475,11.954h-0.24c-1.572-7.377-7.475-11.954-7.475-11.954
		c-15.047-11.664-4.998-20.751-4.998-20.751c8.289-7.082,12.373,4.934,12.373,4.934"/>
	<path fill-rule="evenodd" clip-rule="evenodd" fill="#C51C1D" d="M47.698,97.777c0,0,4.084-12.015,12.373-4.934
		c0,0,10.049,9.087-4.997,20.751c0,0-5.903,4.577-7.475,11.955h-0.241c-1.572-7.378-7.475-11.955-7.475-11.955
		c-15.046-11.664-4.998-20.751-4.998-20.751c8.29-7.081,12.373,4.934,12.373,4.934"/>
	<path fill-rule="evenodd" clip-rule="evenodd" fill="#C51C1D" d="M102.698,97.777c0,0,4.084-12.015,12.373-4.934
		c0,0,10.049,9.087-4.997,20.751c0,0-5.903,4.577-7.475,11.955h-0.241c-1.572-7.378-7.475-11.955-7.475-11.955
		c-15.047-11.664-4.998-20.751-4.998-20.751c8.29-7.081,12.373,4.934,12.373,4.934"/>
	<path fill-rule="evenodd" clip-rule="evenodd" fill="#C51C1D" d="M103.948,159.798c0,0,4.084-12.016,12.373-4.934
		c0,0,10.049,9.088-4.998,20.752c0,0-5.902,4.576-7.475,11.953h-0.24c-1.572-7.377-7.475-11.953-7.475-11.953
		c-15.047-11.664-4.998-20.752-4.998-20.752c8.289-7.082,12.373,4.934,12.373,4.934"/>
	<path fill-rule="evenodd" clip-rule="evenodd" fill="#C51C1D" d="M134.094,174.884c0,0-1.666,4.902-5.048,2.014
		c0,0-4.1-3.707,2.039-8.467c0,0,2.408-1.865,3.049-4.875h0.099c0.642,3.01,3.05,4.875,3.05,4.875
		c6.138,4.76,2.038,8.467,2.038,8.467c-3.382,2.889-5.047-2.014-5.047-2.014"/>
</g>
</svg>
