<?xml version="1.0" encoding="utf-8"?>
<!-- Generator: Adobe Illustrator 15.1.0, SVG Export Plug-In . SVG Version: 6.00 Build 0)  -->
<!DOCTYPE svg PUBLIC "-//W3C//DTD SVG 1.1//EN" "http://www.w3.org/Graphics/SVG/1.1/DTD/svg11.dtd">
<svg version="1.1" id="Laag_1" xmlns="http://www.w3.org/2000/svg" xmlns:xlink="http://www.w3.org/1999/xlink" x="0px" y="0px"
	 width="152.06px" height="215.64px" viewBox="0 0 152.06 215.64" enable-background="new 0 0 152.06 215.64" xml:space="preserve">
<g>
	<polygon fill-rule="evenodd" clip-rule="evenodd" fill="#FFFFFF" points="5.757,-0.001 146.158,-0.001 148.461,0.575 
		150.334,2.375 151.629,4.968 152.063,8.279 152.063,207.432 151.629,210.6 150.334,213.264 148.461,214.992 146.158,215.641 
		5.757,215.641 3.454,214.992 1.654,213.264 0.357,210.6 -0.002,207.432 -0.002,8.279 0.357,4.968 1.654,2.375 3.454,0.575 	"/>
	<g>
		<path fill="#C51C1D" d="M23.804,27.91l-1.514,4.158H9.543v-0.59c3.75-3.42,6.39-6.214,7.919-8.38
			c1.53-2.167,2.295-4.148,2.295-5.944c0-1.369-0.42-2.496-1.259-3.377c-0.84-0.882-1.844-1.323-3.012-1.323
			c-1.063,0-2.016,0.311-2.859,0.933c-0.846,0.621-1.469,1.532-1.873,2.732h-0.59c0.266-1.965,0.949-3.474,2.049-4.525
			c1.099-1.051,2.471-1.577,4.118-1.577c1.753,0,3.216,0.563,4.39,1.689s1.76,2.453,1.76,3.983c0,1.094-0.254,2.188-0.764,3.282
			c-0.787,1.721-2.062,3.542-3.824,5.465c-2.645,2.89-4.297,4.631-4.955,5.227h5.64c1.147,0,1.952-0.043,2.415-0.128
			c0.461-0.085,0.878-0.258,1.25-0.518c0.371-0.261,0.695-0.63,0.972-1.107H23.804z"/>
		<path fill="#C51C1D" d="M128.256,189.729l1.514-4.158h12.748v0.59c-3.75,3.42-6.391,6.215-7.92,8.381s-2.295,4.148-2.295,5.943
			c0,1.369,0.42,2.496,1.26,3.377c0.838,0.883,1.842,1.324,3.01,1.324c1.064,0,2.016-0.311,2.861-0.934
			c0.844-0.621,1.469-1.531,1.873-2.732h0.588c-0.266,1.965-0.947,3.475-2.047,4.525s-2.473,1.578-4.119,1.578
			c-1.752,0-3.215-0.564-4.389-1.689c-1.174-1.127-1.762-2.453-1.762-3.984c0-1.094,0.256-2.188,0.766-3.281
			c0.785-1.721,2.061-3.543,3.824-5.465c2.645-2.891,4.297-4.631,4.955-5.227h-5.641c-1.146,0-1.951,0.043-2.414,0.127
			c-0.463,0.086-0.879,0.258-1.25,0.518c-0.373,0.262-0.695,0.631-0.973,1.107H128.256z"/>
	</g>
	<g>
		<path fill-rule="evenodd" clip-rule="evenodd" fill="#C51C1D" d="M76.25,46.11c0,0,4.084-12.015,12.374-4.934
			c0,0,10.049,9.087-4.998,20.751c0,0-5.902,4.577-7.475,11.955h-0.24c-1.572-7.377-7.475-11.955-7.475-11.955
			c-15.047-11.664-4.998-20.751-4.998-20.751c8.289-7.082,12.373,4.934,12.373,4.934"/>
		<path fill-rule="evenodd" clip-rule="evenodd" fill="#C51C1D" d="M16.583,42.146c0,0,1.666-4.902,5.047-2.013
			c0,0,4.1,3.707-2.039,8.465c0,0-2.408,1.867-3.049,4.876h-0.098c-0.642-3.01-3.049-4.876-3.049-4.876
			c-6.138-4.758-2.039-8.465-2.039-8.465c3.381-2.889,5.047,2.013,5.047,2.013"/>
		<path fill-rule="evenodd" clip-rule="evenodd" fill="#C51C1D" d="M76.25,150.11c0,0,4.084-12.016,12.374-4.934
			c0,0,10.049,9.087-4.998,20.751c0,0-5.902,4.577-7.475,11.954h-0.24c-1.572-7.377-7.475-11.954-7.475-11.954
			c-15.047-11.664-4.998-20.751-4.998-20.751c8.289-7.082,12.373,4.934,12.373,4.934"/>
		<path fill-rule="evenodd" clip-rule="evenodd" fill="#C51C1D" d="M134.297,175.884c0,0-1.666,4.902-5.047,2.014
			c0,0-4.1-3.707,2.039-8.467c0,0,2.408-1.865,3.049-4.875h0.098c0.643,3.01,3.051,4.875,3.051,4.875
			c6.137,4.76,2.037,8.467,2.037,8.467c-3.381,2.889-5.047-2.014-5.047-2.014"/>
	</g>
</g>
</svg>
