<?xml version="1.0" encoding="utf-8"?>
<!-- Generator: Adobe Illustrator 15.1.0, SVG Export Plug-In . SVG Version: 6.00 Build 0)  -->
<!DOCTYPE svg PUBLIC "-//W3C//DTD SVG 1.1//EN" "http://www.w3.org/Graphics/SVG/1.1/DTD/svg11.dtd">
<svg version="1.1" id="Laag_1" xmlns="http://www.w3.org/2000/svg" xmlns:xlink="http://www.w3.org/1999/xlink" x="0px" y="0px"
	 width="152.06px" height="215.64px" viewBox="0 0 152.06 215.64" enable-background="new 0 0 152.06 215.64" xml:space="preserve">
<g>
	<polygon fill-rule="evenodd" clip-rule="evenodd" fill="#FFFFFF" points="5.759,0 146.158,0 148.462,0.576 150.334,2.375 
		151.63,4.968 152.062,8.28 152.062,207.432 151.63,210.6 150.334,213.264 148.462,214.992 146.158,215.641 5.759,215.641 
		3.454,214.992 1.654,213.264 0.358,210.6 -0.002,207.432 -0.002,8.28 0.358,4.968 1.654,2.375 3.454,0.576 	"/>
	<path fill="#BC181D" d="M23.155,9.123v0.596c-1.419,0.141-2.578,0.423-3.476,0.847c-0.897,0.425-1.784,1.073-2.66,1.943
		c-0.877,0.871-1.603,1.842-2.178,2.911s-1.056,2.341-1.443,3.813c1.549-1.064,3.102-1.597,4.661-1.597
		c1.494,0,2.789,0.603,3.886,1.807s1.646,2.752,1.646,4.645c0,1.827-0.554,3.494-1.661,4.999c-1.333,1.827-3.097,2.741-5.289,2.741
		c-1.495,0-2.764-0.494-3.807-1.483c-2.042-1.925-3.063-4.419-3.063-7.482c0-1.957,0.393-3.816,1.177-5.58
		c0.785-1.763,1.906-3.327,3.362-4.692c1.457-1.365,2.852-2.284,4.186-2.758c1.332-0.473,2.574-0.709,3.725-0.709H23.155z
		 M13.125,20.411c-0.194,1.451-0.291,2.623-0.291,3.516c0,1.031,0.191,2.152,0.573,3.362c0.381,1.209,0.948,2.169,1.701,2.878
		c0.548,0.506,1.215,0.758,1.999,0.758c0.936,0,1.771-0.44,2.508-1.322c0.736-0.881,1.104-2.139,1.104-3.773
		c0-1.838-0.365-3.429-1.097-4.773c-0.73-1.344-1.769-2.016-3.112-2.016c-0.408,0-0.847,0.086-1.313,0.258
		C14.729,19.47,14.038,19.84,13.125,20.411z"/>
	<path fill="#BC181D" d="M127.574,205.342v-0.596c1.419-0.141,2.577-0.422,3.475-0.848c0.898-0.424,1.785-1.072,2.661-1.943
		c0.876-0.869,1.602-1.84,2.177-2.91s1.057-2.342,1.443-3.814c-1.548,1.064-3.102,1.598-4.66,1.598c-1.494,0-2.79-0.604-3.887-1.807
		c-1.097-1.205-1.645-2.752-1.645-4.645c0-1.828,0.554-3.494,1.661-4.998c1.333-1.828,3.096-2.742,5.289-2.742
		c1.494,0,2.763,0.494,3.806,1.484c2.043,1.924,3.064,4.418,3.064,7.482c0,1.955-0.393,3.816-1.178,5.578
		c-0.784,1.764-1.905,3.328-3.362,4.693c-1.456,1.365-2.852,2.285-4.185,2.758s-2.574,0.709-3.726,0.709H127.574z M137.604,194.055
		c0.193-1.451,0.29-2.623,0.29-3.516c0-1.033-0.19-2.154-0.572-3.363s-0.949-2.168-1.701-2.879c-0.549-0.504-1.215-0.758-2-0.758
		c-0.936,0-1.771,0.441-2.508,1.322c-0.736,0.883-1.104,2.141-1.104,3.773c0,1.84,0.366,3.43,1.097,4.773
		c0.731,1.344,1.769,2.016,3.112,2.016c0.409,0,0.847-0.086,1.314-0.258S136.69,194.623,137.604,194.055z"/>
	<g>
		<path fill-rule="evenodd" clip-rule="evenodd" fill="#C51C1D" d="M48.567,62.252c0,1.344-12.926-16.129-11.932-16.129
			c-0.994,0,11.932-17.473,11.932-16.129c0-1.344,12.926,16.129,11.932,16.129C61.493,46.124,48.567,63.596,48.567,62.252z"/>
	</g>
	<g>
		<path fill-rule="evenodd" clip-rule="evenodd" fill="#C51C1D" d="M48.567,185.918c0,1.344-12.926-16.129-11.932-16.129
			c-0.994,0,11.932-17.473,11.932-16.129c0-1.344,12.926,16.129,11.932,16.129C61.493,169.789,48.567,187.262,48.567,185.918z"/>
	</g>
	<g>
		<path fill-rule="evenodd" clip-rule="evenodd" fill="#C51C1D" d="M103.566,62.252c0,1.344-12.925-16.129-11.931-16.129
			c-0.994,0,11.931-17.473,11.931-16.129c0-1.344,12.927,16.129,11.933,16.129C116.493,46.124,103.566,63.596,103.566,62.252z"/>
	</g>
	<g>
		<path fill-rule="evenodd" clip-rule="evenodd" fill="#C51C1D" d="M48.567,123.949c0,1.344-12.926-16.129-11.932-16.129
			c-0.994,0,11.932-17.473,11.932-16.129c0-1.344,12.926,16.129,11.932,16.129C61.493,107.82,48.567,125.293,48.567,123.949z"/>
	</g>
	<g>
		<path fill-rule="evenodd" clip-rule="evenodd" fill="#C51C1D" d="M103.419,186.066c0,1.344-12.926-16.129-11.932-16.129
			c-0.994,0,11.932-17.473,11.932-16.129c0-1.344,12.926,16.129,11.932,16.129C116.345,169.938,103.419,187.41,103.419,186.066z"/>
	</g>
	<g>
		<g>
			<path fill-rule="evenodd" clip-rule="evenodd" fill="#C51C1D" d="M16.488,52.193c0,0.581-5.585-6.969-5.156-6.969
				c-0.43,0,5.156-7.55,5.156-6.969c0-0.581,5.585,6.969,5.156,6.969C22.073,45.224,16.488,52.774,16.488,52.193z"/>
		</g>
		<g>
			<path fill-rule="evenodd" clip-rule="evenodd" fill="#C51C1D" d="M135.201,176.054c0,0.58-5.586-6.97-5.156-6.97
				c-0.43,0,5.156-7.55,5.156-6.97c0-0.58,5.585,6.97,5.155,6.97C140.786,169.084,135.201,176.634,135.201,176.054z"/>
		</g>
	</g>
	<g>
		<path fill-rule="evenodd" clip-rule="evenodd" fill="#C51C1D" d="M104.07,123.949c0,1.344-12.926-16.129-11.932-16.129
			c-0.994,0,11.932-17.473,11.932-16.129c0-1.344,12.926,16.129,11.932,16.129C116.996,107.82,104.07,125.293,104.07,123.949z"/>
	</g>
</g>
</svg>
