<?xml version="1.0" encoding="utf-8"?>
<!-- Generator: Adobe Illustrator 15.1.0, SVG Export Plug-In . SVG Version: 6.00 Build 0)  -->
<!DOCTYPE svg PUBLIC "-//W3C//DTD SVG 1.1//EN" "http://www.w3.org/Graphics/SVG/1.1/DTD/svg11.dtd">
<svg version="1.1" id="Laag_1" xmlns="http://www.w3.org/2000/svg" xmlns:xlink="http://www.w3.org/1999/xlink" x="0px" y="0px"
	 width="152.06px" height="215.64px" viewBox="0 0 152.06 215.64" enable-background="new 0 0 152.06 215.64" xml:space="preserve">
<g>
	<polygon fill-rule="evenodd" clip-rule="evenodd" fill="#FFFFFF" points="5.758,0 146.158,0 148.461,0.576 150.334,2.376 
		151.629,4.969 152.062,8.28 152.062,207.433 151.629,210.601 150.334,213.265 148.461,214.992 146.158,215.64 5.758,215.64 
		3.453,214.992 1.654,213.265 0.357,210.601 -0.002,207.433 -0.002,8.28 0.357,4.969 1.654,2.376 3.453,0.576 	"/>
	<g>
		<path fill="#BC181D" d="M6.276,11.719l5.322-2.596h0.531v18.464c0,1.226,0.051,1.989,0.154,2.29
			c0.102,0.301,0.314,0.532,0.637,0.693s0.978,0.253,1.967,0.274v0.597H6.663v-0.597c1.033-0.021,1.699-0.11,2-0.267
			c0.301-0.155,0.511-0.365,0.629-0.629c0.118-0.263,0.178-1.051,0.178-2.362V15.782c0-1.591-0.055-2.612-0.162-3.063
			c-0.074-0.344-0.212-0.597-0.41-0.758c-0.199-0.161-0.438-0.242-0.719-0.242c-0.396,0-0.951,0.167-1.66,0.5L6.276,11.719z"/>
		<path fill="#BC181D" d="M15.489,20.637c0-2.494,0.376-4.642,1.129-6.442c0.752-1.801,1.752-3.142,3-4.023
			c0.967-0.699,1.967-1.048,2.999-1.048c1.677,0,3.183,0.854,4.515,2.563c1.667,2.118,2.5,4.988,2.5,8.611
			c0,2.537-0.365,4.692-1.097,6.467c-0.731,1.773-1.663,3.062-2.798,3.862s-2.229,1.201-3.281,1.201
			c-2.086,0-3.822-1.23-5.209-3.692C16.075,26.061,15.489,23.561,15.489,20.637z M18.649,21.04c0,3.01,0.371,5.467,1.113,7.369
			c0.613,1.603,1.526,2.403,2.741,2.403c0.581,0,1.183-0.261,1.806-0.782c0.624-0.521,1.098-1.396,1.42-2.621
			c0.494-1.849,0.742-4.456,0.742-7.82c0-2.494-0.259-4.575-0.774-6.241c-0.388-1.236-0.888-2.112-1.5-2.629
			c-0.44-0.354-0.974-0.532-1.597-0.532c-0.73,0-1.381,0.328-1.951,0.984c-0.773,0.893-1.301,2.295-1.58,4.209
			C18.79,17.293,18.649,19.18,18.649,21.04z"/>
	</g>
	<g>
		<path fill="#BC181D" d="M144.45,202.747l-5.322,2.596h-0.531v-18.465c0-1.225-0.051-1.988-0.154-2.289
			c-0.102-0.301-0.314-0.532-0.637-0.693c-0.322-0.162-0.978-0.253-1.967-0.274v-0.597h8.225v0.597c-1.033,0.021-1.699,0.11-2,0.267
			c-0.301,0.155-0.511,0.365-0.629,0.629c-0.118,0.263-0.178,1.051-0.178,2.361v11.805c0,1.592,0.055,2.613,0.162,3.064
			c0.074,0.344,0.212,0.597,0.41,0.758c0.199,0.161,0.438,0.242,0.719,0.242c0.396,0,0.951-0.167,1.66-0.5L144.45,202.747z"/>
		<path fill="#BC181D" d="M135.237,193.829c0,2.494-0.376,4.642-1.129,6.442c-0.752,1.8-1.752,3.142-3,4.023
			c-0.967,0.698-1.967,1.048-2.999,1.048c-1.677,0-3.183-0.854-4.515-2.564c-1.667-2.117-2.5-4.988-2.5-8.611
			c0-2.537,0.365-4.691,1.097-6.466s1.663-3.062,2.798-3.862s2.229-1.201,3.281-1.201c2.086,0,3.822,1.23,5.209,3.692
			C134.651,188.405,135.237,190.905,135.237,193.829z M132.077,193.426c0-3.011-0.371-5.467-1.113-7.37
			c-0.613-1.602-1.526-2.402-2.741-2.402c-0.581,0-1.183,0.261-1.806,0.782c-0.624,0.521-1.098,1.396-1.42,2.62
			c-0.494,1.85-0.742,4.457-0.742,7.821c0,2.494,0.259,4.575,0.774,6.241c0.388,1.236,0.888,2.112,1.5,2.629
			c0.44,0.354,0.974,0.531,1.597,0.531c0.73,0,1.381-0.328,1.951-0.983c0.773-0.893,1.301-2.296,1.58-4.209
			S132.077,195.286,132.077,193.426z"/>
	</g>
	<g>
		<path fill-rule="evenodd" clip-rule="evenodd" fill="#C51C1D" d="M48.923,64.101c0,1.344-12.926-16.129-11.932-16.129
			c-0.994,0,11.932-17.473,11.932-16.129c0-1.344,12.926,16.129,11.932,16.129C61.849,47.972,48.923,65.444,48.923,64.101z"/>
	</g>
	<g>
		<path fill-rule="evenodd" clip-rule="evenodd" fill="#C51C1D" d="M48.923,187.767c0,1.344-12.926-16.129-11.932-16.129
			c-0.994,0,11.932-17.473,11.932-16.129c0-1.344,12.926,16.129,11.932,16.129C61.849,171.638,48.923,189.11,48.923,187.767z"/>
	</g>
	<g>
		<path fill-rule="evenodd" clip-rule="evenodd" fill="#C51C1D" d="M103.923,64.101c0,1.344-12.926-16.129-11.932-16.129
			c-0.994,0,11.932-17.473,11.932-16.129c0-1.344,12.926,16.129,11.932,16.129C116.849,47.972,103.923,65.444,103.923,64.101z"/>
	</g>
	<g>
		<path fill-rule="evenodd" clip-rule="evenodd" fill="#C51C1D" d="M48.923,146.797c0,1.344-12.926-16.129-11.932-16.129
			c-0.994,0,11.932-17.473,11.932-16.129c0-1.344,12.926,16.129,11.932,16.129C61.849,130.668,48.923,148.141,48.923,146.797z"/>
	</g>
	<g>
		<path fill-rule="evenodd" clip-rule="evenodd" fill="#C51C1D" d="M103.775,187.914c0,1.344-12.927-16.129-11.933-16.129
			c-0.994,0,11.933-17.473,11.933-16.129c0-1.344,12.925,16.129,11.931,16.129C116.7,171.785,103.775,189.258,103.775,187.914z"/>
	</g>
	<g>
		<g>
			<path fill-rule="evenodd" clip-rule="evenodd" fill="#C51C1D" d="M16.844,54.042c0,0.581-5.586-6.969-5.156-6.969
				c-0.43,0,5.156-7.55,5.156-6.969c0-0.581,5.586,6.969,5.156,6.969C22.43,47.072,16.844,54.623,16.844,54.042z"/>
		</g>
		<g>
			<path fill-rule="evenodd" clip-rule="evenodd" fill="#C51C1D" d="M135.557,177.901c0,0.58-5.586-6.97-5.156-6.97
				c-0.43,0,5.156-7.55,5.156-6.97c0-0.58,5.586,6.97,5.156,6.97C141.143,170.932,135.557,178.481,135.557,177.901z"/>
		</g>
	</g>
	<g>
		<path fill-rule="evenodd" clip-rule="evenodd" fill="#C51C1D" d="M104.426,146.797c0,1.344-12.925-16.129-11.931-16.129
			c-0.994,0,11.931-17.473,11.931-16.129c0-1.344,12.927,16.129,11.933,16.129C117.353,130.668,104.426,148.141,104.426,146.797z"/>
	</g>
	<g>
		<path fill-rule="evenodd" clip-rule="evenodd" fill="#C51C1D" d="M48.923,105.797c0,1.344-12.926-16.129-11.932-16.129
			c-0.994,0,11.932-17.473,11.932-16.129c0-1.344,12.926,16.129,11.932,16.129C61.849,89.668,48.923,107.141,48.923,105.797z"/>
	</g>
	<g>
		<path fill-rule="evenodd" clip-rule="evenodd" fill="#C51C1D" d="M104.426,105.797c0,1.344-12.925-16.129-11.931-16.129
			c-0.994,0,11.931-17.473,11.931-16.129c0-1.344,12.927,16.129,11.933,16.129C117.353,89.668,104.426,107.141,104.426,105.797z"/>
	</g>
	<g>
		<path fill-rule="evenodd" clip-rule="evenodd" fill="#C51C1D" d="M77.029,85.874c0,1.344-12.926-16.129-11.932-16.129
			c-0.994,0,11.932-17.473,11.932-16.129c0-1.344,12.926,16.129,11.932,16.129C89.955,69.745,77.029,87.217,77.029,85.874z"/>
	</g>
	<g>
		<path fill-rule="evenodd" clip-rule="evenodd" fill="#C51C1D" d="M77.029,167.991c0,1.344-12.926-16.129-11.932-16.129
			c-0.994,0,11.932-17.473,11.932-16.129c0-1.344,12.926,16.129,11.932,16.129C89.955,151.862,77.029,169.335,77.029,167.991z"/>
	</g>
</g>
</svg>
