<?xml version="1.0" encoding="utf-8"?>
<!-- Generator: Adobe Illustrator 15.1.0, SVG Export Plug-In . SVG Version: 6.00 Build 0)  -->
<!DOCTYPE svg PUBLIC "-//W3C//DTD SVG 1.1//EN" "http://www.w3.org/Graphics/SVG/1.1/DTD/svg11.dtd">
<svg version="1.1" id="Laag_1" xmlns="http://www.w3.org/2000/svg" xmlns:xlink="http://www.w3.org/1999/xlink" x="0px" y="0px"
	 width="152.06px" height="215.64px" viewBox="0 0 152.06 215.64" enable-background="new 0 0 152.06 215.64" xml:space="preserve">
<g>
	<polygon fill-rule="evenodd" clip-rule="evenodd" fill="#FFFFFF" points="5.758,0 146.158,0 148.463,0.576 150.334,2.376 
		151.631,4.968 152.063,8.281 152.063,207.432 151.631,210.6 150.334,213.264 148.463,214.992 146.158,215.641 5.758,215.641 
		3.455,214.992 1.654,213.264 0.358,210.6 -0.002,207.432 -0.002,8.281 0.358,4.968 1.654,2.376 3.455,0.576 	"/>
	<path fill="#BC181D" d="M11.672,9.574h11.725v0.612l-7.289,21.706h-1.807l6.531-19.689h-6.015c-1.216,0-2.081,0.145-2.597,0.435
		c-0.903,0.495-1.629,1.258-2.177,2.29L9.577,14.75L11.672,9.574z"/>
	<path fill="#BC181D" d="M139.055,204.891H127.33v-0.613l7.289-21.705h1.807l-6.531,19.689h6.014c1.217,0,2.082-0.145,2.598-0.436
		c0.902-0.494,1.629-1.258,2.176-2.289l0.469,0.178L139.055,204.891z"/>
	<g>
		<g>
			<path fill-rule="evenodd" clip-rule="evenodd" fill="#C51C1D" d="M47.923,62.101c0,1.344-12.926-16.129-11.932-16.129
				c-0.994,0,11.932-17.473,11.932-16.129c0-1.344,12.926,16.129,11.932,16.129C60.849,45.972,47.923,63.444,47.923,62.101z"/>
		</g>
		<g>
			<path fill-rule="evenodd" clip-rule="evenodd" fill="#C51C1D" d="M47.923,185.768c0,1.344-12.926-16.129-11.932-16.129
				c-0.994,0,11.932-17.473,11.932-16.129c0-1.344,12.926,16.129,11.932,16.129C60.849,169.639,47.923,187.111,47.923,185.768z"/>
		</g>
		<g>
			<path fill-rule="evenodd" clip-rule="evenodd" fill="#C51C1D" d="M102.924,62.101c0,1.344-12.927-16.129-11.933-16.129
				c-0.994,0,11.933-17.473,11.933-16.129c0-1.344,12.925,16.129,11.931,16.129C115.849,45.972,102.924,63.444,102.924,62.101z"/>
		</g>
		<g>
			<path fill-rule="evenodd" clip-rule="evenodd" fill="#C51C1D" d="M47.923,123.797c0,1.344-12.926-16.129-11.932-16.129
				c-0.994,0,11.932-17.473,11.932-16.129c0-1.344,12.926,16.129,11.932,16.129C60.849,107.668,47.923,125.141,47.923,123.797z"/>
		</g>
		<g>
			<path fill-rule="evenodd" clip-rule="evenodd" fill="#C51C1D" d="M102.775,185.914c0,1.344-12.925-16.129-11.931-16.129
				c-0.994,0,11.931-17.473,11.931-16.129c0-1.344,12.927,16.129,11.933,16.129C115.702,169.785,102.775,187.258,102.775,185.914z"
				/>
		</g>
		<g>
			<g>
				<path fill-rule="evenodd" clip-rule="evenodd" fill="#C51C1D" d="M15.844,52.042c0,0.581-5.585-6.969-5.156-6.969
					c-0.43,0,5.156-7.55,5.156-6.969c0-0.581,5.585,6.969,5.156,6.969C21.43,45.072,15.844,52.623,15.844,52.042z"/>
			</g>
			<g>
				<path fill-rule="evenodd" clip-rule="evenodd" fill="#C51C1D" d="M134.557,175.901c0,0.58-5.584-6.97-5.154-6.97
					c-0.43,0,5.154-7.55,5.154-6.97c0-0.58,5.586,6.97,5.156,6.97C140.143,168.932,134.557,176.481,134.557,175.901z"/>
			</g>
		</g>
		<g>
			<path fill-rule="evenodd" clip-rule="evenodd" fill="#C51C1D" d="M103.428,123.797c0,1.344-12.927-16.129-11.933-16.129
				c-0.994,0,11.933-17.473,11.933-16.129c0-1.344,12.925,16.129,11.931,16.129C116.353,107.668,103.428,125.141,103.428,123.797z"
				/>
		</g>
	</g>
</g>
</svg>
