<?xml version="1.0" encoding="utf-8"?>
<!-- Generator: Adobe Illustrator 15.1.0, SVG Export Plug-In . SVG Version: 6.00 Build 0)  -->
<!DOCTYPE svg PUBLIC "-//W3C//DTD SVG 1.1//EN" "http://www.w3.org/Graphics/SVG/1.1/DTD/svg11.dtd">
<svg version="1.1" id="Laag_1" xmlns="http://www.w3.org/2000/svg" xmlns:xlink="http://www.w3.org/1999/xlink" x="0px" y="0px"
	 width="152.06px" height="215.64px" viewBox="0 0 152.06 215.64" enable-background="new 0 0 152.06 215.64" xml:space="preserve">
<g>
	<polygon fill-rule="evenodd" clip-rule="evenodd" fill="#FFFFFF" points="5.759,0 146.158,0 148.462,0.576 150.334,2.375 
		151.63,4.968 152.062,8.28 152.062,207.432 151.63,210.6 150.334,213.264 148.462,214.992 146.158,215.641 5.759,215.641 
		3.454,214.992 1.654,213.264 0.358,210.6 -0.002,207.432 -0.002,8.28 0.358,4.968 1.654,2.375 3.454,0.576 	"/>
	<g>
		<path fill="#BC181D" d="M22.688,9.574l-1.258,2.741h-6.579l-1.436,2.936c2.849,0.419,5.106,1.478,6.772,3.177
			c1.43,1.462,2.146,3.182,2.146,5.16c0,1.15-0.234,2.215-0.702,3.192c-0.468,0.979-1.056,1.813-1.766,2.5
			c-0.709,0.688-1.5,1.241-2.37,1.661c-1.236,0.591-2.505,0.887-3.806,0.887c-1.313,0-2.266-0.224-2.862-0.669
			c-0.597-0.446-0.896-0.938-0.896-1.476c0-0.301,0.123-0.567,0.371-0.799c0.247-0.23,0.559-0.347,0.936-0.347
			c0.279,0,0.523,0.043,0.733,0.129c0.21,0.087,0.567,0.307,1.072,0.662c0.807,0.559,1.623,0.838,2.451,0.838
			c1.258,0,2.362-0.476,3.314-1.427c0.951-0.951,1.427-2.11,1.427-3.476c0-1.322-0.425-2.556-1.274-3.701
			c-0.849-1.145-2.021-2.028-3.515-2.652c-1.172-0.483-2.769-0.764-4.79-0.839l4.193-8.498H22.688z"/>
	</g>
	<g>
		<path fill="#BC181D" d="M128.04,204.893l1.258-2.742h6.579l1.436-2.936c-2.849-0.418-5.106-1.479-6.772-3.176
			c-1.43-1.463-2.146-3.184-2.146-5.16c0-1.15,0.234-2.215,0.702-3.193s1.056-1.813,1.766-2.5c0.709-0.688,1.5-1.242,2.37-1.66
			c1.236-0.592,2.505-0.889,3.806-0.889c1.313,0,2.266,0.225,2.862,0.67s0.896,0.938,0.896,1.477c0,0.301-0.123,0.566-0.371,0.797
			c-0.247,0.232-0.559,0.348-0.936,0.348c-0.279,0-0.523-0.043-0.733-0.129s-0.567-0.307-1.072-0.662
			c-0.807-0.559-1.623-0.838-2.451-0.838c-1.258,0-2.362,0.475-3.314,1.428c-0.951,0.951-1.427,2.109-1.427,3.475
			c0,1.322,0.425,2.557,1.274,3.701c0.849,1.145,2.021,2.029,3.515,2.652c1.172,0.484,2.769,0.764,4.79,0.838l-4.193,8.5H128.04z"/>
	</g>
	<g>
		<path fill-rule="evenodd" clip-rule="evenodd" fill="#C51C1D" d="M48.526,61.923c0,1.344-12.926-16.129-11.932-16.129
			c-0.994,0,11.932-17.473,11.932-16.129c0-1.344,12.926,16.129,11.932,16.129C61.452,45.794,48.526,63.267,48.526,61.923z"/>
	</g>
	<g>
		<path fill-rule="evenodd" clip-rule="evenodd" fill="#C51C1D" d="M48.526,185.59c0,1.344-12.926-16.129-11.932-16.129
			c-0.994,0,11.932-17.473,11.932-16.129c0-1.344,12.926,16.129,11.932,16.129C61.452,169.461,48.526,186.934,48.526,185.59z"/>
	</g>
	<g>
		<path fill-rule="evenodd" clip-rule="evenodd" fill="#C51C1D" d="M103.526,61.923c0,1.344-12.926-16.129-11.932-16.129
			c-0.994,0,11.932-17.473,11.932-16.129c0-1.344,12.926,16.129,11.932,16.129C116.452,45.794,103.526,63.267,103.526,61.923z"/>
	</g>
	<g>
		<path fill-rule="evenodd" clip-rule="evenodd" fill="#C51C1D" d="M76.03,124.148c0,1.344-12.926-16.129-11.932-16.129
			c-0.994,0,11.932-17.473,11.932-16.129c0-1.344,12.925,16.129,11.931,16.129C88.955,108.02,76.03,125.492,76.03,124.148z"/>
	</g>
	<g>
		<path fill-rule="evenodd" clip-rule="evenodd" fill="#C51C1D" d="M103.526,185.59c0,1.344-12.926-16.129-11.932-16.129
			c-0.994,0,11.932-17.473,11.932-16.129c0-1.344,12.926,16.129,11.932,16.129C116.452,169.461,103.526,186.934,103.526,185.59z"/>
	</g>
	<g>
		<g>
			<path fill-rule="evenodd" clip-rule="evenodd" fill="#C51C1D" d="M16.595,51.716c0,0.581-5.585-6.969-5.156-6.969
				c-0.43,0,5.156-7.55,5.156-6.969c0-0.581,5.585,6.969,5.156,6.969C22.181,44.747,16.595,52.297,16.595,51.716z"/>
		</g>
		<g>
			<path fill-rule="evenodd" clip-rule="evenodd" fill="#C51C1D" d="M135.308,175.577c0,0.58-5.585-6.97-5.155-6.97
				c-0.43,0,5.155-7.55,5.155-6.97c0-0.58,5.586,6.97,5.156,6.97C140.894,168.607,135.308,176.157,135.308,175.577z"/>
		</g>
	</g>
</g>
</svg>
