<?xml version="1.0" encoding="utf-8"?>
<!-- Generator: Adobe Illustrator 15.1.0, SVG Export Plug-In . SVG Version: 6.00 Build 0)  -->
<!DOCTYPE svg PUBLIC "-//W3C//DTD SVG 1.1//EN" "http://www.w3.org/Graphics/SVG/1.1/DTD/svg11.dtd">
<svg version="1.1" id="Laag_1" xmlns="http://www.w3.org/2000/svg" xmlns:xlink="http://www.w3.org/1999/xlink" x="0px" y="0px"
	 width="152.06px" height="215.64px" viewBox="0 0 152.06 215.64" enable-background="new 0 0 152.06 215.64" xml:space="preserve">
<g>
	<polygon fill-rule="evenodd" clip-rule="evenodd" fill="#FFFFFF" points="5.757,0 146.158,0 148.461,0.576 150.334,2.376 
		151.629,4.968 152.063,8.28 152.063,207.431 151.629,210.599 150.334,213.263 148.461,214.991 146.158,215.64 5.757,215.64 
		3.454,214.991 1.654,213.263 0.357,210.599 -0.002,207.431 -0.002,8.28 0.357,4.968 1.654,2.376 3.454,0.576 	"/>
	<path fill="#BC181D" d="M22.312,23.15v2.263h-2.898v5.704h-2.63v-5.704H7.638v-2.039L17.66,9.065h1.754V23.15H22.312z
		 M16.784,23.15V12.428L9.199,23.15H16.784z"/>
	<path fill="#BC181D" d="M126.639,188.032v-2.262h2.898v-5.705h2.631v5.705h9.145v2.039l-10.021,14.308h-1.754v-14.085H126.639z
		 M132.168,188.032v10.724l7.584-10.724H132.168z"/>
	<g>
		<path fill-rule="evenodd" clip-rule="evenodd" fill="#C51C1D" d="M48.525,62.281c0,1.344-12.926-16.129-11.932-16.129
			c-0.994,0,11.932-17.473,11.932-16.129c0-1.344,12.926,16.129,11.932,16.129C61.451,46.152,48.525,63.625,48.525,62.281z"/>
	</g>
	<g>
		<path fill-rule="evenodd" clip-rule="evenodd" fill="#C51C1D" d="M48.525,185.947c0,1.344-12.926-16.129-11.932-16.129
			c-0.994,0,11.932-17.473,11.932-16.129c0-1.344,12.926,16.129,11.932,16.129C61.451,169.818,48.525,187.291,48.525,185.947z"/>
	</g>
	<g>
		<path fill-rule="evenodd" clip-rule="evenodd" fill="#C51C1D" d="M103.525,62.281c0,1.344-12.927-16.129-11.933-16.129
			c-0.994,0,11.933-17.473,11.933-16.129c0-1.344,12.925,16.129,11.931,16.129C116.45,46.152,103.525,63.625,103.525,62.281z"/>
	</g>
	<g>
		<path fill-rule="evenodd" clip-rule="evenodd" fill="#C51C1D" d="M103.525,185.947c0,1.344-12.927-16.129-11.933-16.129
			c-0.994,0,11.933-17.473,11.933-16.129c0-1.344,12.925,16.129,11.931,16.129C116.45,169.818,103.525,187.291,103.525,185.947z"/>
	</g>
	<g>
		<g>
			<path fill-rule="evenodd" clip-rule="evenodd" fill="#C51C1D" d="M16.594,52.075c0,0.581-5.585-6.969-5.156-6.969
				c-0.43,0,5.156-7.55,5.156-6.969c0-0.581,5.585,6.969,5.156,6.969C22.179,45.105,16.594,52.656,16.594,52.075z"/>
		</g>
		<g>
			<path fill-rule="evenodd" clip-rule="evenodd" fill="#C51C1D" d="M135.307,175.935c0,0.58-5.586-6.97-5.156-6.97
				c-0.43,0,5.156-7.55,5.156-6.97c0-0.58,5.586,6.97,5.156,6.97C140.893,168.965,135.307,176.515,135.307,175.935z"/>
		</g>
	</g>
</g>
</svg>
