<?xml version="1.0" encoding="utf-8"?>
<!-- Generator: Adobe Illustrator 15.1.0, SVG Export Plug-In . SVG Version: 6.00 Build 0)  -->
<!DOCTYPE svg PUBLIC "-//W3C//DTD SVG 1.1//EN" "http://www.w3.org/Graphics/SVG/1.1/DTD/svg11.dtd">
<svg version="1.1" id="Laag_1" xmlns="http://www.w3.org/2000/svg" xmlns:xlink="http://www.w3.org/1999/xlink" x="0px" y="0px"
	 width="152.06px" height="215.64px" viewBox="0 0 152.06 215.64" enable-background="new 0 0 152.06 215.64" xml:space="preserve">
<g>
	<polygon fill-rule="evenodd" clip-rule="evenodd" fill="#FFFFFF" points="5.758,0 146.158,0 148.461,0.576 150.334,2.375 
		151.629,4.968 152.063,8.28 152.063,207.432 151.629,210.6 150.334,213.264 148.461,214.992 146.158,215.641 5.758,215.641 
		3.453,214.992 1.654,213.264 0.357,210.6 -0.002,207.432 -0.002,8.28 0.357,4.968 1.654,2.375 3.453,0.576 	"/>
	<path fill="#BC181D" d="M11.151,13.935c0.616-1.456,1.395-2.579,2.335-3.37c0.939-0.791,2.11-1.188,3.513-1.188
		c1.731,0,3.06,0.563,3.983,1.689c0.701,0.839,1.051,1.736,1.051,2.692c0,1.572-0.987,3.197-2.963,4.876
		c1.328,0.521,2.332,1.264,3.012,2.23s1.02,2.104,1.02,3.409c0,1.87-0.596,3.49-1.785,4.86c-1.551,1.784-3.797,2.677-6.739,2.677
		c-1.456,0-2.446-0.181-2.972-0.542c-0.525-0.36-0.789-0.749-0.789-1.163c0-0.308,0.125-0.579,0.375-0.813
		c0.249-0.233,0.549-0.351,0.9-0.351c0.266,0,0.536,0.043,0.813,0.128c0.18,0.053,0.59,0.246,1.227,0.581
		c0.638,0.335,1.078,0.534,1.322,0.598c0.394,0.117,0.813,0.176,1.259,0.176c1.083,0,2.026-0.42,2.828-1.259
		c0.802-0.84,1.203-1.833,1.203-2.98c0-0.839-0.187-1.656-0.558-2.453c-0.275-0.595-0.578-1.046-0.908-1.354
		c-0.457-0.425-1.083-0.81-1.88-1.155c-0.796-0.345-1.609-0.518-2.438-0.518h-0.51v-0.479c0.84-0.105,1.682-0.408,2.525-0.908
		c0.845-0.499,1.459-1.1,1.841-1.8c0.382-0.701,0.573-1.472,0.573-2.311c0-1.094-0.342-1.979-1.027-2.653
		c-0.686-0.674-1.537-1.012-2.558-1.012c-1.646,0-3.021,0.882-4.126,2.646L11.151,13.935z"/>
	<path fill="#BC181D" d="M140.697,200.344c-0.615,1.457-1.395,2.58-2.334,3.371s-2.111,1.188-3.514,1.188
		c-1.73,0-3.059-0.564-3.982-1.689c-0.701-0.84-1.051-1.736-1.051-2.693c0-1.572,0.986-3.197,2.963-4.875
		c-1.328-0.521-2.332-1.264-3.012-2.23s-1.02-2.104-1.02-3.41c0-1.869,0.596-3.49,1.785-4.859c1.551-1.785,3.797-2.678,6.738-2.678
		c1.457,0,2.447,0.182,2.973,0.543c0.525,0.359,0.789,0.748,0.789,1.162c0,0.309-0.125,0.58-0.375,0.813
		c-0.25,0.234-0.549,0.352-0.9,0.352c-0.266,0-0.537-0.043-0.813-0.129c-0.18-0.053-0.59-0.246-1.227-0.58
		c-0.639-0.336-1.078-0.535-1.322-0.598c-0.395-0.117-0.813-0.176-1.26-0.176c-1.082,0-2.025,0.42-2.828,1.258
		c-0.801,0.84-1.203,1.834-1.203,2.98c0,0.84,0.188,1.656,0.559,2.453c0.275,0.596,0.578,1.047,0.908,1.355
		c0.457,0.424,1.082,0.809,1.879,1.154s1.609,0.518,2.439,0.518h0.51v0.479c-0.84,0.105-1.682,0.408-2.525,0.908
		c-0.846,0.5-1.459,1.1-1.842,1.801c-0.381,0.701-0.572,1.471-0.572,2.311c0,1.094,0.342,1.979,1.027,2.652s1.537,1.012,2.557,1.012
		c1.646,0,3.021-0.881,4.127-2.645L140.697,200.344z"/>
	<g>
		<g>
			<path fill-rule="evenodd" clip-rule="evenodd" fill="#C51C1D" d="M16.216,52.763c0,0.581-5.585-6.969-5.156-6.969
				c-0.43,0,5.156-7.55,5.156-6.969c0-0.581,5.585,6.969,5.156,6.969C21.801,45.793,16.216,53.344,16.216,52.763z"/>
		</g>
		<g>
			<path fill-rule="evenodd" clip-rule="evenodd" fill="#C51C1D" d="M134.93,176.624c0,0.58-5.586-6.97-5.156-6.97
				c-0.43,0,5.156-7.55,5.156-6.97c0-0.58,5.584,6.97,5.154,6.97C140.514,169.654,134.93,177.204,134.93,176.624z"/>
		</g>
	</g>
	<g>
		<path fill-rule="evenodd" clip-rule="evenodd" fill="#C51C1D" d="M76.025,185.59c0,1.344-12.925-16.129-11.931-16.129
			c-0.994,0,11.931-17.473,11.931-16.129c0-1.344,12.927,16.129,11.933,16.129C88.952,169.461,76.025,186.934,76.025,185.59z"/>
	</g>
	<g>
		<path fill-rule="evenodd" clip-rule="evenodd" fill="#C51C1D" d="M76.025,123.59c0,1.344-12.925-16.129-11.931-16.129
			c-0.994,0,11.931-17.473,11.931-16.129c0-1.344,12.927,16.129,11.933,16.129C88.952,107.46,76.025,124.934,76.025,123.59z"/>
	</g>
	<g>
		<path fill-rule="evenodd" clip-rule="evenodd" fill="#C51C1D" d="M76.025,61.922c0,1.344-12.925-16.129-11.931-16.129
			c-0.994,0,11.931-17.473,11.931-16.129c0-1.344,12.927,16.129,11.933,16.129C88.952,45.793,76.025,63.266,76.025,61.922z"/>
	</g>
</g>
</svg>
