<?xml version="1.0" encoding="utf-8"?>
<!-- Generator: Adobe Illustrator 15.1.0, SVG Export Plug-In . SVG Version: 6.00 Build 0)  -->
<!DOCTYPE svg PUBLIC "-//W3C//DTD SVG 1.1//EN" "http://www.w3.org/Graphics/SVG/1.1/DTD/svg11.dtd">
<svg version="1.1" id="Laag_1" xmlns="http://www.w3.org/2000/svg" xmlns:xlink="http://www.w3.org/1999/xlink" x="0px" y="0px"
	 width="152.06px" height="215.64px" viewBox="0 0 152.06 215.64" enable-background="new 0 0 152.06 215.64" xml:space="preserve">
<g>
	<polygon fill-rule="evenodd" clip-rule="evenodd" fill="#FFFFFF" points="5.757,0 146.158,0 148.461,0.576 150.334,2.375 
		151.629,4.968 152.063,8.28 152.063,207.432 151.629,210.6 150.334,213.264 148.461,214.992 146.158,215.641 5.757,215.641 
		3.454,214.992 1.654,213.264 0.357,210.6 -0.002,207.432 -0.002,8.28 0.357,4.968 1.654,2.375 3.454,0.576 	"/>
	<path fill="#C51C1D" d="M23.803,26.911l-1.514,4.158H9.542v-0.59c3.75-3.42,6.39-6.214,7.919-8.38
		c1.53-2.167,2.295-4.148,2.295-5.944c0-1.369-0.42-2.496-1.259-3.377c-0.84-0.882-1.844-1.323-3.012-1.323
		c-1.063,0-2.016,0.311-2.859,0.933c-0.846,0.621-1.469,1.532-1.873,2.732h-0.59c0.266-1.965,0.949-3.474,2.049-4.525
		c1.099-1.051,2.471-1.577,4.118-1.577c1.753,0,3.216,0.563,4.39,1.689s1.76,2.453,1.76,3.983c0,1.094-0.254,2.188-0.764,3.282
		c-0.787,1.721-2.062,3.542-3.824,5.465c-2.645,2.89-4.297,4.631-4.955,5.227h5.64c1.147,0,1.952-0.043,2.415-0.128
		c0.461-0.085,0.878-0.258,1.25-0.518c0.371-0.261,0.695-0.63,0.972-1.107H23.803z"/>
	<path fill="#C51C1D" d="M128.256,188.729l1.514-4.158h12.746v0.59c-3.75,3.42-6.389,6.215-7.918,8.381s-2.295,4.148-2.295,5.943
		c0,1.369,0.42,2.496,1.258,3.377c0.84,0.883,1.844,1.324,3.012,1.324c1.063,0,2.016-0.311,2.861-0.934
		c0.844-0.621,1.469-1.531,1.871-2.732h0.59c-0.266,1.965-0.947,3.475-2.047,4.525s-2.473,1.578-4.119,1.578
		c-1.752,0-3.217-0.564-4.391-1.689c-1.174-1.127-1.76-2.453-1.76-3.984c0-1.094,0.254-2.188,0.764-3.281
		c0.787-1.721,2.063-3.543,3.824-5.465c2.646-2.891,4.297-4.631,4.957-5.227h-5.641c-1.148,0-1.953,0.043-2.414,0.127
		c-0.463,0.086-0.879,0.258-1.252,0.518c-0.371,0.262-0.695,0.631-0.971,1.107H128.256z"/>
	<g>
		<path fill-rule="evenodd" clip-rule="evenodd" fill="#C51C1D" d="M76.03,61.922c0,1.344-12.926-16.129-11.932-16.129
			c-0.994,0,11.932-17.473,11.932-16.129c0-1.344,12.926,16.129,11.932,16.129C88.956,45.793,76.03,63.266,76.03,61.922z"/>
	</g>
	<g>
		<g>
			<path fill-rule="evenodd" clip-rule="evenodd" fill="#C51C1D" d="M16.673,52.763c0,0.581-5.585-6.969-5.156-6.969
				c-0.43,0,5.156-7.55,5.156-6.969c0-0.581,5.585,6.969,5.156,6.969C22.258,45.793,16.673,53.344,16.673,52.763z"/>
		</g>
		<g>
			<path fill-rule="evenodd" clip-rule="evenodd" fill="#C51C1D" d="M135.387,176.624c0,0.58-5.586-6.97-5.156-6.97
				c-0.43,0,5.156-7.55,5.156-6.97c0-0.58,5.584,6.97,5.154,6.97C140.971,169.654,135.387,177.204,135.387,176.624z"/>
		</g>
	</g>
	<g>
		<path fill-rule="evenodd" clip-rule="evenodd" fill="#C51C1D" d="M76.03,185.783c0,1.344-12.926-16.129-11.932-16.129
			c-0.994,0,11.932-17.473,11.932-16.129c0-1.344,12.926,16.129,11.932,16.129C88.956,169.654,76.03,187.127,76.03,185.783z"/>
	</g>
</g>
</svg>
