<?xml version="1.0" encoding="utf-8"?>
<!-- Generator: Adobe Illustrator 15.1.0, SVG Export Plug-In . SVG Version: 6.00 Build 0)  -->
<!DOCTYPE svg PUBLIC "-//W3C//DTD SVG 1.1//EN" "http://www.w3.org/Graphics/SVG/1.1/DTD/svg11.dtd">
<svg version="1.1" id="Laag_1" xmlns="http://www.w3.org/2000/svg" xmlns:xlink="http://www.w3.org/1999/xlink" x="0px" y="0px"
	 width="152.06px" height="215.64px" viewBox="0 0 152.06 215.64" enable-background="new 0 0 152.06 215.64" xml:space="preserve">
<g>
	<polygon fill-rule="evenodd" clip-rule="evenodd" fill="#FFFFFF" points="5.758,0 146.158,0 148.461,0.576 150.334,2.376 
		151.629,4.968 152.062,8.28 152.062,207.433 151.629,210.601 150.334,213.265 148.461,214.991 146.158,215.64 5.758,215.64 
		3.453,214.991 1.654,213.265 0.357,210.601 -0.002,207.433 -0.002,8.28 0.357,4.968 1.654,2.376 3.453,0.576 	"/>
	<path fill="#BC181D" d="M21.073,25.045h-8.467l-1.484,3.451c-0.365,0.85-0.547,1.484-0.547,1.903c0,0.333,0.158,0.626,0.475,0.879
		c0.317,0.253,1.003,0.417,2.057,0.491v0.598H6.22V31.77c0.914-0.16,1.506-0.371,1.774-0.629c0.548-0.516,1.155-1.564,1.822-3.145
		L17.509,10h0.564l7.611,18.189c0.613,1.463,1.17,2.412,1.669,2.847c0.5,0.436,1.196,0.681,2.089,0.733v0.598h-8.628V31.77
		c0.871-0.043,1.46-0.188,1.767-0.436c0.306-0.246,0.459-0.548,0.459-0.902c0-0.473-0.215-1.221-0.645-2.242L21.073,25.045z
		 M20.621,23.852l-3.709-8.836l-3.806,8.836H20.621z"/>
	<path fill="#BC181D" d="M130.393,191.271h8.466l1.484-3.451c0.365-0.85,0.548-1.483,0.548-1.902c0-0.334-0.158-0.627-0.476-0.879
		c-0.316-0.253-1.002-0.417-2.057-0.492v-0.597h6.887v0.597c-0.914,0.161-1.506,0.371-1.773,0.629
		c-0.549,0.516-1.156,1.564-1.822,3.145l-7.693,17.997h-0.564l-7.611-18.19c-0.612-1.463-1.169-2.411-1.668-2.846
		c-0.5-0.436-1.197-0.681-2.089-0.734v-0.597h8.628v0.597c-0.871,0.043-1.46,0.188-1.767,0.436c-0.306,0.247-0.46,0.549-0.46,0.902
		c0,0.474,0.216,1.221,0.646,2.242L130.393,191.271z M130.845,192.465l3.709,8.837l3.805-8.837H130.845z"/>
	<circle fill="#BC181D" cx="76.567" cy="168.732" r="6"/>
	<circle fill="#BC181D" cx="76.567" cy="53.733" r="6"/>
	<g>
		<g>
			<path fill-rule="evenodd" clip-rule="evenodd" fill="#C51C1D" d="M16.844,54.967c0,0.581-5.586-6.969-5.156-6.969
				c-0.43,0,5.156-7.55,5.156-6.969c0-0.581,5.586,6.969,5.156,6.969C22.43,47.998,16.844,55.548,16.844,54.967z"/>
		</g>
		<g>
			<path fill-rule="evenodd" clip-rule="evenodd" fill="#C51C1D" d="M135.557,178.828c0,0.58-5.586-6.97-5.156-6.97
				c-0.43,0,5.156-7.55,5.156-6.97c0-0.58,5.586,6.97,5.156,6.97C141.143,171.858,135.557,179.408,135.557,178.828z"/>
		</g>
	</g>
	<g>
		<path fill-rule="evenodd" clip-rule="evenodd" fill="#C51C1D" d="M76.564,152.838c0,3.418-32.871-41.02-30.342-41.02
			c-2.528,0,30.342-44.438,30.342-41.02c0-3.418,32.876,41.02,30.347,41.02C109.44,111.818,76.564,156.256,76.564,152.838z"/>
	</g>
	<path fill-rule="evenodd" clip-rule="evenodd" fill="#C51C1D" d="M76.49,55.431c0,0,19.518,35.894,33.127,28.478
		c3.988-2.173,9.09,1.847,5.379,4.741c-14.641,11.415-38.512-33.254-38.512-33.254L76.49,55.431z"/>
	<path fill-rule="evenodd" clip-rule="evenodd" fill="#C51C1D" d="M76.275,55.431c0,0-19.518,35.894-33.127,28.478
		c-3.988-2.173-9.09,1.847-5.379,4.741c14.641,11.415,38.512-33.254,38.512-33.254L76.275,55.431z"/>
	<path fill-rule="evenodd" clip-rule="evenodd" fill="#C51C1D" d="M76.037,55.279c0,0,12.739,10.956,16.892,6.121
		c1.217-1.418,3.765-0.615,2.759,1.038c-3.966,6.524-19.658-7.173-19.658-7.173L76.037,55.279z"/>
	<path fill-rule="evenodd" clip-rule="evenodd" fill="#C51C1D" d="M76.021,55.279c0,0-12.739,10.956-16.892,6.121
		c-1.217-1.418-3.765-0.615-2.759,1.038c3.966,6.524,19.658-7.173,19.658-7.173L76.021,55.279z"/>
	<circle fill="#BC181D" cx="76.567" cy="53.733" r="6"/>
	<path fill-rule="evenodd" clip-rule="evenodd" fill="#C51C1D" d="M75.46,168.456c0,0-19.518-35.893-33.127-28.478
		c-3.988,2.173-9.09-1.847-5.379-4.741c14.641-11.414,38.512,33.254,38.512,33.254L75.46,168.456z"/>
	<path fill-rule="evenodd" clip-rule="evenodd" fill="#C51C1D" d="M75.675,168.456c0,0,19.518-35.893,33.127-28.478
		c3.988,2.173,9.09-1.847,5.379-4.741c-14.641-11.414-38.512,33.254-38.512,33.254L75.675,168.456z"/>
	<path fill-rule="evenodd" clip-rule="evenodd" fill="#C51C1D" d="M75.913,168.608c0,0-12.739-10.957-16.892-6.121
		c-1.217,1.418-3.765,0.615-2.759-1.039c3.966-6.524,19.658,7.173,19.658,7.173L75.913,168.608z"/>
	<path fill-rule="evenodd" clip-rule="evenodd" fill="#C51C1D" d="M75.929,168.608c0,0,12.739-10.957,16.892-6.121
		c1.217,1.418,3.765,0.615,2.759-1.039c-3.966-6.524-19.658,7.173-19.658,7.173L75.929,168.608z"/>
</g>
</svg>
