<?xml version="1.0" encoding="utf-8"?>
<!-- Generator: Adobe Illustrator 15.1.0, SVG Export Plug-In . SVG Version: 6.00 Build 0)  -->
<!DOCTYPE svg PUBLIC "-//W3C//DTD SVG 1.1//EN" "http://www.w3.org/Graphics/SVG/1.1/DTD/svg11.dtd">
<svg version="1.1" id="Laag_1" xmlns="http://www.w3.org/2000/svg" xmlns:xlink="http://www.w3.org/1999/xlink" x="0px" y="0px"
	 width="152.06px" height="215.64px" viewBox="0 0 152.06 215.64" enable-background="new 0 0 152.06 215.64" xml:space="preserve">
<g>
	<polygon fill-rule="evenodd" clip-rule="evenodd" fill="#FFFFFF" points="5.758,0 146.158,0 148.461,0.576 150.334,2.376 
		151.629,4.968 152.063,8.281 152.063,207.432 151.629,210.6 150.334,213.264 148.461,214.992 146.158,215.641 5.758,215.641 
		3.455,214.992 1.654,213.264 0.358,210.6 -0.002,207.432 -0.002,8.281 0.358,4.968 1.654,2.376 3.455,0.576 	"/>
	<g>
		<path fill="#BC181D" d="M14.689,20.426c-1.73-1.419-2.846-2.559-3.346-3.419c-0.5-0.859-0.75-1.752-0.75-2.677
			c0-1.419,0.549-2.642,1.645-3.668c1.097-1.027,2.554-1.54,4.37-1.54c1.764,0,3.183,0.478,4.258,1.435s1.612,2.048,1.612,3.273
			c0,0.817-0.29,1.65-0.87,2.5c-0.581,0.85-1.79,1.849-3.629,2.999c1.893,1.463,3.145,2.612,3.758,3.451
			c0.816,1.097,1.226,2.253,1.226,3.468c0,1.537-0.586,2.852-1.758,3.942s-2.709,1.637-4.612,1.637c-2.075,0-3.693-0.65-4.854-1.951
			c-0.925-1.043-1.388-2.183-1.388-3.419c0-0.968,0.325-1.927,0.976-2.878C11.977,22.627,13.098,21.577,14.689,20.426z
			 M15.448,21.04c-0.893,0.752-1.554,1.572-1.984,2.459c-0.43,0.887-0.645,1.847-0.645,2.879c0,1.387,0.379,2.497,1.137,3.33
			s1.723,1.249,2.895,1.249c1.161,0,2.091-0.327,2.79-0.983c0.698-0.655,1.048-1.451,1.048-2.387c0-0.774-0.204-1.468-0.612-2.08
			C19.312,24.367,17.769,22.877,15.448,21.04z M17.221,18.701c1.29-1.161,2.107-2.077,2.451-2.749s0.516-1.433,0.516-2.282
			c0-1.129-0.316-2.013-0.951-2.652s-1.5-0.96-2.596-0.96c-1.097,0-1.989,0.317-2.678,0.952c-0.688,0.634-1.032,1.376-1.032,2.225
			c0,0.56,0.143,1.118,0.428,1.678c0.285,0.559,0.69,1.091,1.218,1.597L17.221,18.701z"/>
	</g>
	<g>
		<path fill="#BC181D" d="M136.039,194.037c1.73,1.42,2.846,2.559,3.346,3.42c0.5,0.859,0.75,1.752,0.75,2.676
			c0,1.42-0.549,2.643-1.645,3.67c-1.098,1.025-2.553,1.539-4.371,1.539c-1.762,0-3.182-0.479-4.256-1.436
			c-1.076-0.957-1.613-2.047-1.613-3.273c0-0.816,0.289-1.65,0.871-2.498c0.58-0.85,1.789-1.85,3.627-3
			c-1.891-1.463-3.145-2.613-3.756-3.451c-0.818-1.098-1.227-2.252-1.227-3.467c0-1.537,0.586-2.852,1.758-3.943
			s2.709-1.637,4.613-1.637c2.074,0,3.691,0.65,4.854,1.951c0.924,1.043,1.387,2.182,1.387,3.418c0,0.969-0.326,1.928-0.977,2.879
			S137.629,192.887,136.039,194.037z M135.281,193.426c0.893-0.754,1.553-1.572,1.982-2.461c0.432-0.887,0.646-1.846,0.646-2.877
			c0-1.387-0.379-2.498-1.139-3.33c-0.758-0.834-1.723-1.25-2.895-1.25c-1.16,0-2.09,0.328-2.789,0.982
			c-0.699,0.656-1.049,1.453-1.049,2.387c0,0.775,0.205,1.469,0.613,2.082C131.416,190.098,132.959,191.586,135.281,193.426z
			 M133.508,195.764c-1.291,1.16-2.107,2.078-2.453,2.75c-0.344,0.672-0.516,1.432-0.516,2.281c0,1.129,0.318,2.014,0.951,2.652
			c0.635,0.641,1.5,0.959,2.598,0.959c1.096,0,1.988-0.316,2.676-0.951c0.689-0.635,1.033-1.375,1.033-2.225
			c0-0.559-0.143-1.119-0.428-1.678s-0.691-1.092-1.217-1.596L133.508,195.764z"/>
	</g>
	<g>
		<g>
			<path fill-rule="evenodd" clip-rule="evenodd" fill="#C51C1D" d="M48.924,62.101c0,1.344-12.926-16.129-11.932-16.129
				c-0.994,0,11.932-17.473,11.932-16.129c0-1.344,12.926,16.129,11.932,16.129C61.85,45.972,48.924,63.444,48.924,62.101z"/>
		</g>
		<g>
			<path fill-rule="evenodd" clip-rule="evenodd" fill="#C51C1D" d="M48.924,185.768c0,1.344-12.926-16.129-11.932-16.129
				c-0.994,0,11.932-17.473,11.932-16.129c0-1.344,12.926,16.129,11.932,16.129C61.85,169.639,48.924,187.111,48.924,185.768z"/>
		</g>
		<g>
			<path fill-rule="evenodd" clip-rule="evenodd" fill="#C51C1D" d="M103.924,62.101c0,1.344-12.925-16.129-11.931-16.129
				c-0.994,0,11.931-17.473,11.931-16.129c0-1.344,12.927,16.129,11.933,16.129C116.851,45.972,103.924,63.444,103.924,62.101z"/>
		</g>
		<g>
			<path fill-rule="evenodd" clip-rule="evenodd" fill="#C51C1D" d="M48.924,144.797c0,1.344-12.926-16.129-11.932-16.129
				c-0.994,0,11.932-17.473,11.932-16.129c0-1.344,12.926,16.129,11.932,16.129C61.85,128.668,48.924,146.141,48.924,144.797z"/>
		</g>
		<g>
			<path fill-rule="evenodd" clip-rule="evenodd" fill="#C51C1D" d="M103.777,185.914c0,1.344-12.927-16.129-11.933-16.129
				c-0.994,0,11.933-17.473,11.933-16.129c0-1.344,12.925,16.129,11.931,16.129C116.702,169.785,103.777,187.258,103.777,185.914z"
				/>
		</g>
		<g>
			<g>
				<path fill-rule="evenodd" clip-rule="evenodd" fill="#C51C1D" d="M16.845,52.042c0,0.581-5.585-6.969-5.156-6.969
					c-0.43,0,5.156-7.55,5.156-6.969c0-0.581,5.585,6.969,5.156,6.969C22.431,45.072,16.845,52.623,16.845,52.042z"/>
			</g>
			<g>
				<path fill-rule="evenodd" clip-rule="evenodd" fill="#C51C1D" d="M135.559,175.901c0,0.58-5.586-6.97-5.156-6.97
					c-0.43,0,5.156-7.55,5.156-6.97c0-0.58,5.586,6.97,5.156,6.97C141.145,168.932,135.559,176.481,135.559,175.901z"/>
			</g>
		</g>
		<g>
			<path fill-rule="evenodd" clip-rule="evenodd" fill="#C51C1D" d="M104.428,144.797c0,1.344-12.925-16.129-11.931-16.129
				c-0.994,0,11.931-17.473,11.931-16.129c0-1.344,12.927,16.129,11.933,16.129C117.354,128.668,104.428,146.141,104.428,144.797z"
				/>
		</g>
		<g>
			<path fill-rule="evenodd" clip-rule="evenodd" fill="#C51C1D" d="M48.924,103.797c0,1.344-12.926-16.129-11.932-16.129
				c-0.994,0,11.932-17.473,11.932-16.129c0-1.344,12.926,16.129,11.932,16.129C61.85,87.668,48.924,105.141,48.924,103.797z"/>
		</g>
		<g>
			<path fill-rule="evenodd" clip-rule="evenodd" fill="#C51C1D" d="M104.428,103.797c0,1.344-12.925-16.129-11.931-16.129
				c-0.994,0,11.931-17.473,11.931-16.129c0-1.344,12.927,16.129,11.933,16.129C117.354,87.668,104.428,105.141,104.428,103.797z"/>
		</g>
	</g>
</g>
</svg>
