<?xml version="1.0" encoding="utf-8"?>
<!-- Generator: Adobe Illustrator 15.1.0, SVG Export Plug-In . SVG Version: 6.00 Build 0)  -->
<!DOCTYPE svg PUBLIC "-//W3C//DTD SVG 1.1//EN" "http://www.w3.org/Graphics/SVG/1.1/DTD/svg11.dtd">
<svg version="1.1" id="Laag_1" xmlns="http://www.w3.org/2000/svg" xmlns:xlink="http://www.w3.org/1999/xlink" x="0px" y="0px"
	 width="152.06px" height="215.64px" viewBox="0 0 152.06 215.64" enable-background="new 0 0 152.06 215.64" xml:space="preserve">
<g>
	<polygon fill-rule="evenodd" clip-rule="evenodd" fill="#FFFFFF" points="5.758,0 146.158,0 148.461,0.576 150.334,2.375 
		151.629,4.968 152.062,8.28 152.062,207.434 151.629,210.602 150.334,213.266 148.461,214.992 146.158,215.641 5.758,215.641 
		3.453,214.992 1.654,213.266 0.357,210.602 -0.002,207.434 -0.002,8.28 0.357,4.968 1.654,2.375 3.453,0.576 	"/>
	<path fill="#BC181D" d="M10.093,31.893v-0.597c1.397-0.021,2.698-0.347,3.902-0.976s2.367-1.728,3.491-3.298
		c1.124-1.569,1.905-3.295,2.347-5.177c-1.688,1.086-3.215,1.629-4.58,1.629c-1.537,0-2.854-0.594-3.951-1.781
		c-1.096-1.188-1.645-2.766-1.645-4.733c0-1.913,0.549-3.617,1.645-5.112c1.322-1.816,3.049-2.725,5.177-2.725
		c1.796,0,3.333,0.741,4.612,2.225c1.569,1.839,2.354,4.107,2.354,6.806c0,2.43-0.597,4.695-1.79,6.797
		c-1.193,2.103-2.854,3.847-4.982,5.233c-1.732,1.14-3.619,1.709-5.661,1.709H10.093z M20.091,20.653
		c0.193-1.397,0.291-2.516,0.291-3.354c0-1.043-0.178-2.169-0.533-3.379c-0.354-1.209-0.857-2.137-1.508-2.781
		c-0.65-0.646-1.389-0.968-2.217-0.968c-0.957,0-1.796,0.43-2.516,1.29c-0.721,0.86-1.08,2.14-1.08,3.838
		c0,2.269,0.478,4.042,1.435,5.321c0.698,0.925,1.559,1.388,2.58,1.388c0.495,0,1.081-0.118,1.758-0.355
		C18.978,21.417,19.575,21.083,20.091,20.653z"/>
	<path fill="#BC181D" d="M140.635,182.572v0.598c-1.397,0.021-2.698,0.346-3.902,0.975s-2.368,1.729-3.491,3.299
		s-1.906,3.295-2.347,5.176c1.688-1.086,3.215-1.629,4.58-1.629c1.538,0,2.854,0.594,3.95,1.783
		c1.098,1.188,1.646,2.766,1.646,4.732c0,1.914-0.548,3.617-1.646,5.111c-1.322,1.818-3.047,2.727-5.176,2.727
		c-1.795,0-3.332-0.742-4.612-2.227c-1.569-1.838-2.354-4.105-2.354-6.805c0-2.43,0.597-4.695,1.79-6.797s2.854-3.846,4.983-5.232
		c1.73-1.141,3.617-1.711,5.66-1.711H140.635z M130.637,193.813c-0.194,1.398-0.29,2.516-0.29,3.355
		c0,1.041,0.178,2.168,0.531,3.377c0.355,1.211,0.857,2.137,1.508,2.783c0.651,0.645,1.391,0.967,2.218,0.967
		c0.957,0,1.796-0.43,2.516-1.289c0.721-0.861,1.081-2.141,1.081-3.84c0-2.268-0.479-4.041-1.436-5.32
		c-0.699-0.926-1.559-1.387-2.58-1.387c-0.494,0-1.08,0.117-1.758,0.354S131.153,193.383,130.637,193.813z"/>
	<g>
		<path fill-rule="evenodd" clip-rule="evenodd" fill="#C51C1D" d="M48.924,64.101c0,1.344-12.926-16.129-11.932-16.129
			c-0.994,0,11.932-17.473,11.932-16.129c0-1.344,12.926,16.129,11.932,16.129C61.85,47.972,48.924,65.445,48.924,64.101z"/>
	</g>
	<g>
		<path fill-rule="evenodd" clip-rule="evenodd" fill="#C51C1D" d="M48.924,187.768c0,1.344-12.926-16.129-11.932-16.129
			c-0.994,0,11.932-17.473,11.932-16.129c0-1.344,12.926,16.129,11.932,16.129C61.85,171.639,48.924,189.111,48.924,187.768z"/>
	</g>
	<g>
		<path fill-rule="evenodd" clip-rule="evenodd" fill="#C51C1D" d="M103.924,64.101c0,1.344-12.926-16.129-11.932-16.129
			c-0.994,0,11.932-17.473,11.932-16.129c0-1.344,12.926,16.129,11.932,16.129C116.85,47.972,103.924,65.445,103.924,64.101z"/>
	</g>
	<g>
		<path fill-rule="evenodd" clip-rule="evenodd" fill="#C51C1D" d="M48.924,146.797c0,1.344-12.926-16.129-11.932-16.129
			c-0.994,0,11.932-17.473,11.932-16.129c0-1.344,12.926,16.129,11.932,16.129C61.85,130.668,48.924,148.141,48.924,146.797z"/>
	</g>
	<g>
		<path fill-rule="evenodd" clip-rule="evenodd" fill="#C51C1D" d="M103.776,187.914c0,1.344-12.927-16.129-11.933-16.129
			c-0.994,0,11.933-17.473,11.933-16.129c0-1.344,12.925,16.129,11.931,16.129C116.701,171.785,103.776,189.258,103.776,187.914z"/>
	</g>
	<g>
		<g>
			<path fill-rule="evenodd" clip-rule="evenodd" fill="#C51C1D" d="M16.845,54.042c0,0.581-5.586-6.969-5.156-6.969
				c-0.43,0,5.156-7.55,5.156-6.969c0-0.581,5.586,6.969,5.156,6.969C22.431,47.073,16.845,54.623,16.845,54.042z"/>
		</g>
		<g>
			<path fill-rule="evenodd" clip-rule="evenodd" fill="#C51C1D" d="M135.558,177.901c0,0.58-5.586-6.97-5.156-6.97
				c-0.43,0,5.156-7.55,5.156-6.97c0-0.58,5.586,6.97,5.156,6.97C141.144,170.932,135.558,178.481,135.558,177.901z"/>
		</g>
	</g>
	<g>
		<path fill-rule="evenodd" clip-rule="evenodd" fill="#C51C1D" d="M104.427,146.797c0,1.344-12.925-16.129-11.931-16.129
			c-0.994,0,11.931-17.473,11.931-16.129c0-1.344,12.927,16.129,11.933,16.129C117.354,130.668,104.427,148.141,104.427,146.797z"/>
	</g>
	<g>
		<path fill-rule="evenodd" clip-rule="evenodd" fill="#C51C1D" d="M48.924,105.797c0,1.344-12.926-16.129-11.932-16.129
			c-0.994,0,11.932-17.473,11.932-16.129c0-1.344,12.926,16.129,11.932,16.129C61.85,89.668,48.924,107.141,48.924,105.797z"/>
	</g>
	<g>
		<path fill-rule="evenodd" clip-rule="evenodd" fill="#C51C1D" d="M104.427,105.797c0,1.344-12.925-16.129-11.931-16.129
			c-0.994,0,11.931-17.473,11.931-16.129c0-1.344,12.927,16.129,11.933,16.129C117.354,89.668,104.427,107.141,104.427,105.797z"/>
	</g>
	<g>
		<path fill-rule="evenodd" clip-rule="evenodd" fill="#C51C1D" d="M77.03,123.949c0,1.344-12.926-16.129-11.932-16.129
			c-0.994,0,11.932-17.473,11.932-16.129c0-1.344,12.926,16.129,11.932,16.129C89.956,107.82,77.03,125.293,77.03,123.949z"/>
	</g>
</g>
</svg>
